<?xml version="1.0" encoding="UTF-8"?>
<svg version="1.1" xmlns="http://www.w3.org/2000/svg" width="230" height="235">
<path d="M0 0 C75.9 0 151.8 0 230 0 C230 77.55 230 155.1 230 235 C154.1 235 78.2 235 0 235 C0 157.45 0 79.9 0 0 Z " fill="#1E760B" transform="translate(0,0)"/>
<path d="M0 0 C10.56 0 21.12 0 32 0 C32 0.99 32 1.98 32 3 C35.96 3 39.92 3 44 3 C44 3.99 44 4.98 44 6 C45.093125 5.979375 46.18625 5.95875 47.3125 5.9375 C51 6 51 6 54 7 C54 9.31 54 11.62 54 14 C55.32 14 56.64 14 58 14 C58 15.32 58 16.64 58 18 C56.68 18 55.36 18 54 18 C54 18.99 54 19.98 54 21 C48.06 21 42.12 21 36 21 C36 20.01 36 19.02 36 18 C33.69 17.67 31.38 17.34 29 17 C29 16.01 29 15.02 29 14 C27.68 14 26.36 14 25 14 C25 12.68 25 11.36 25 10 C24.01 10 23.02 10 22 10 C22 9.01 22 8.02 22 7 C9.46 7 -3.08 7 -16 7 C-16 7.99 -16 8.98 -16 10 C-17.65 10 -19.3 10 -21 10 C-21 13.63 -21 17.26 -21 21 C-19.35 21 -17.7 21 -16 21 C-16 21.99 -16 22.98 -16 24 C-14.35 24 -12.7 24 -11 24 C-11 25.65 -11 27.3 -11 29 C-10.01 29 -9.02 29 -8 29 C-8 29.99 -8 30.98 -8 32 C-7.01 32 -6.02 32 -5 32 C-5 32.99 -5 33.98 -5 35 C-2.36 35 0.28 35 3 35 C3 35.99 3 36.98 3 38 C4.32 38 5.64 38 7 38 C7 38.66 7 39.32 7 40 C9.31 40 11.62 40 14 40 C14 40.99 14 41.98 14 43 C16.64 43 19.28 43 22 43 C22 43.99 22 44.98 22 46 C22.99 46 23.98 46 25 46 C25 46.99 25 47.98 25 49 C27.31 49 29.62 49 32 49 C32 49.66 32 50.32 32 51 C33.32 51 34.64 51 36 51 C36 51.99 36 52.98 36 54 C36.99 54 37.98 54 39 54 C39 54.99 39 55.98 39 57 C41.64 57 44.28 57 47 57 C47 57.99 47 58.98 47 60 C48.32 60 49.64 60 51 60 C51 60.66 51 61.32 51 62 C51.99 62 52.98 62 54 62 C54 63.98 54 65.96 54 68 C55.32 68 56.64 68 58 68 C58 68.99 58 69.98 58 71 C59.65 71 61.3 71 63 71 C63 73.64 63 76.28 63 79 C64.32 79 65.64 79 67 79 C67 88.9 67 98.8 67 109 C65.68 109 64.36 109 63 109 C63 110.98 63 112.96 63 115 C61.35 115 59.7 115 58 115 C58 117.64 58 120.28 58 123 C56.68 123 55.36 123 54 123 C54 123.99 54 124.98 54 126 C53.01 126 52.02 126 51 126 C51 126.99 51 127.98 51 129 C48.69 129.33 46.38 129.66 44 130 C44 130.99 44 131.98 44 133 C42.35 133 40.7 133 39 133 C39 134.32 39 135.64 39 137 C35.7 137 32.4 137 29 137 C29 137.99 29 138.98 29 140 C20.18110125 140.76924973 11.41447868 141.10714427 2.5625 141.125 C1.17877197 141.13176758 1.17877197 141.13176758 -0.23291016 141.13867188 C-5.5799008 141.1270711 -10.70936746 140.77967216 -16 140 C-16 139.01 -16 138.02 -16 137 C-18.64 137 -21.28 137 -24 137 C-24 135.68 -24 134.36 -24 133 C-25.32 133 -26.64 133 -28 133 C-28 132.01 -28 131.02 -28 130 C-30.31 129.67 -32.62 129.34 -35 129 C-35 128.01 -35 127.02 -35 126 C-35.99 126 -36.98 126 -38 126 C-38 122.37 -38 118.74 -38 115 C-39.65 115 -41.3 115 -43 115 C-43 105.76 -43 96.52 -43 87 C-41.35 87 -39.7 87 -38 87 C-38 85.35 -38 83.7 -38 82 C-37.01 82 -36.02 82 -35 82 C-35 80.02 -35 78.04 -35 76 C-33.68 76 -32.36 76 -31 76 C-31 74.35 -31 72.7 -31 71 C-30.01 71 -29.02 71 -28 71 C-28 70.01 -28 69.02 -28 68 C-26.68 68 -25.36 68 -24 68 C-24 67.01 -24 66.02 -24 65 C-23.01 65 -22.02 65 -21 65 C-21 64.01 -21 63.02 -21 62 C-17.7 62 -14.4 62 -11 62 C-11 61.34 -11 60.68 -11 60 C-9.02 60 -7.04 60 -5 60 C-5 59.01 -5 58.02 -5 57 C1.27 57 7.54 57 14 57 C14 56.01 14 55.02 14 54 C12.68 54 11.36 54 10 54 C10 53.01 10 52.02 10 51 C9.01 51 8.02 51 7 51 C7 50.34 7 49.68 7 49 C5.68 49 4.36 49 3 49 C3 48.01 3 47.02 3 46 C2.01 46 1.02 46 0 46 C0 45.01 0 44.02 0 43 C-1.65 43 -3.3 43 -5 43 C-5 42.01 -5 41.02 -5 40 C-6.98 40 -8.96 40 -11 40 C-11 39.34 -11 38.68 -11 38 C-12.65 38 -14.3 38 -16 38 C-16 37.01 -16 36.02 -16 35 C-17.65 35 -19.3 35 -21 35 C-21 34.01 -21 33.02 -21 32 C-21.99 32 -22.98 32 -24 32 C-24 29.36 -24 26.72 -24 24 C-25.32 24 -26.64 24 -28 24 C-28 19.38 -28 14.76 -28 10 C-26.68 10 -25.36 10 -24 10 C-24 9.01 -24 8.02 -24 7 C-20.98509443 5.99503148 -18.95818308 5.89664697 -15.8125 5.9375 C-14.91144531 5.94652344 -14.01039062 5.95554687 -13.08203125 5.96484375 C-12.39496094 5.97644531 -11.70789063 5.98804688 -11 6 C-11 5.01 -11 4.02 -11 3 C-7.37 3 -3.74 3 0 3 C0 2.01 0 1.02 0 0 Z " fill="#D5ED39" transform="translate(53,44)"/>
<path d="M0 0 C3.96 0 7.92 0 12 0 C12 0.66 12 1.32 12 2 C12.99 2 13.98 2 15 2 C15 2.99 15 3.98 15 5 C16.32 5 17.64 5 19 5 C19 5.99 19 6.98 19 8 C19.99 8 20.98 8 22 8 C22 10.64 22 13.28 22 16 C23.32 16 24.64 16 26 16 C26 16.99 26 17.98 26 19 C26.99 19 27.98 19 29 19 C29 20.98 29 22.96 29 25 C30.65 25 32.3 25 34 25 C34 27.64 34 30.28 34 33 C34.99 33 35.98 33 37 33 C37 36.63 37 40.26 37 44 C36.01 44 35.02 44 34 44 C34 47.63 34 51.26 34 55 C32.35 55 30.7 55 29 55 C29 57.64 29 60.28 29 63 C28.01 63 27.02 63 26 63 C26 64.98 26 66.96 26 69 C22.32589215 70.17571451 18.83070817 70.07366746 15 70 C15 70.99 15 71.98 15 73 C6.75 73 -1.5 73 -10 73 C-10 72.01 -10 71.02 -10 70 C-12.64 69.67 -15.28 69.34 -18 69 C-18 68.01 -18 67.02 -18 66 C-18.99 66 -19.98 66 -21 66 C-21 65.01 -21 64.02 -21 63 C-22.65 63 -24.3 63 -26 63 C-26 59.37 -26 55.74 -26 52 C-27.65 52 -29.3 52 -31 52 C-31 43.09 -31 34.18 -31 25 C-29.35 25 -27.7 25 -26 25 C-26 23.02 -26 21.04 -26 19 C-24.35 19 -22.7 19 -21 19 C-21 18.01 -21 17.02 -21 16 C-20.01 16 -19.02 16 -18 16 C-18 14.35 -18 12.7 -18 11 C-17.01 11 -16.02 11 -15 11 C-15 9.02 -15 7.04 -15 5 C-12.36 5 -9.72 5 -7 5 C-7 4.01 -7 3.02 -7 2 C-4.69 2 -2.38 2 0 2 C0 1.34 0 0.68 0 0 Z " fill="#1F7609" transform="translate(63,104)"/>
<path d="M0 0 C10.56 0 21.12 0 32 0 C32 0.99 32 1.98 32 3 C35.96 3 39.92 3 44 3 C44 3.99 44 4.98 44 6 C45.093125 5.979375 46.18625 5.95875 47.3125 5.9375 C51 6 51 6 54 7 C54 9.31 54 11.62 54 14 C55.32 14 56.64 14 58 14 C58 15.32 58 16.64 58 18 C56.68 18 55.36 18 54 18 C54 18.99 54 19.98 54 21 C48.06 21 42.12 21 36 21 C36 20.01 36 19.02 36 18 C33.69 17.67 31.38 17.34 29 17 C29 16.01 29 15.02 29 14 C27.68 14 26.36 14 25 14 C25 12.68 25 11.36 25 10 C24.01 10 23.02 10 22 10 C22 9.01 22 8.02 22 7 C9.46 7 -3.08 7 -16 7 C-16 7.99 -16 8.98 -16 10 C-17.65 10 -19.3 10 -21 10 C-21 13.63 -21 17.26 -21 21 C-19.35 21 -17.7 21 -16 21 C-16 21.99 -16 22.98 -16 24 C-14.35 24 -12.7 24 -11 24 C-11 25.65 -11 27.3 -11 29 C-10.01 29 -9.02 29 -8 29 C-8 29.99 -8 30.98 -8 32 C-7.01 32 -6.02 32 -5 32 C-5 32.99 -5 33.98 -5 35 C-2.36 35 0.28 35 3 35 C3 35.99 3 36.98 3 38 C4.32 38 5.64 38 7 38 C7 38.66 7 39.32 7 40 C9.31 40 11.62 40 14 40 C14 40.99 14 41.98 14 43 C16.64 43 19.28 43 22 43 C22 43.99 22 44.98 22 46 C22.99 46 23.98 46 25 46 C25 46.99 25 47.98 25 49 C27.31 49 29.62 49 32 49 C32 49.66 32 50.32 32 51 C25.79895188 51.27560214 20.06815522 50.22899346 14 49 C14 49.66 14 50.32 14 51 C14.99 51 15.98 51 17 51 C17 52.98 17 54.96 17 57 C19.64 57 22.28 57 25 57 C25 57.99 25 58.98 25 60 C26.32 60 27.64 60 29 60 C29 60.66 29 61.32 29 62 C29.99 62 30.98 62 32 62 C32 62.99 32 63.98 32 65 C34.31 65 36.62 65 39 65 C39 65.99 39 66.98 39 68 C38.34 68 37.68 68 37 68 C37.99 69.485 37.99 69.485 39 71 C39.25760279 73.69452521 39.08900053 76.28548375 39 79 C38.01 79 37.02 79 36 79 C36 78.01 36 77.02 36 76 C34.68 76 33.36 76 32 76 C32 73.36 32 70.72 32 68 C31.01 68 30.02 68 29 68 C29 67.01 29 66.02 29 65 C27.68 65 26.36 65 25 65 C25 64.01 25 63.02 25 62 C24.01 62 23.02 62 22 62 C22 61.34 22 60.68 22 60 C18.04 60 14.08 60 10 60 C10 60.66 10 61.32 10 62 C7.69 62 5.38 62 3 62 C3 62.99 3 63.98 3 65 C0.36 65 -2.28 65 -5 65 C-5 65.99 -5 66.98 -5 68 C-5.99 68 -6.98 68 -8 68 C-8 67.01 -8 66.02 -8 65 C-8.99 65 -9.98 65 -11 65 C-11 63.35 -11 61.7 -11 60 C-9.02 60 -7.04 60 -5 60 C-5 59.01 -5 58.02 -5 57 C1.27 57 7.54 57 14 57 C14 56.01 14 55.02 14 54 C12.68 54 11.36 54 10 54 C10 53.01 10 52.02 10 51 C9.01 51 8.02 51 7 51 C7 50.34 7 49.68 7 49 C5.68 49 4.36 49 3 49 C3 48.01 3 47.02 3 46 C2.01 46 1.02 46 0 46 C0 45.01 0 44.02 0 43 C-1.65 43 -3.3 43 -5 43 C-5 42.01 -5 41.02 -5 40 C-6.98 40 -8.96 40 -11 40 C-11 39.34 -11 38.68 -11 38 C-12.65 38 -14.3 38 -16 38 C-16 37.01 -16 36.02 -16 35 C-17.65 35 -19.3 35 -21 35 C-21 34.01 -21 33.02 -21 32 C-21.99 32 -22.98 32 -24 32 C-24 29.36 -24 26.72 -24 24 C-25.32 24 -26.64 24 -28 24 C-28 19.38 -28 14.76 -28 10 C-26.68 10 -25.36 10 -24 10 C-24 9.01 -24 8.02 -24 7 C-20.98509443 5.99503148 -18.95818308 5.89664697 -15.8125 5.9375 C-14.91144531 5.94652344 -14.01039062 5.95554687 -13.08203125 5.96484375 C-12.39496094 5.97644531 -11.70789063 5.98804688 -11 6 C-11 5.01 -11 4.02 -11 3 C-7.37 3 -3.74 3 0 3 C0 2.01 0 1.02 0 0 Z " fill="#CEEC3B" transform="translate(53,44)"/>
<path d="M0 0 C0 0.99 0 1.98 0 3 C0.99 3 1.98 3 3 3 C3 4.32 3 5.64 3 7 C4.32 7 5.64 7 7 7 C7 7.99 7 8.98 7 10 C1.69276568 11.42705634 -2.53891111 12.4002792 -8 11 C-8 11.99 -8 12.98 -8 14 C-8.99 14 -9.98 14 -11 14 C-11 15.32 -11 16.64 -11 18 C-10.01 17.67 -9.02 17.34 -8 17 C-8 18.65 -8 20.3 -8 22 C-7.01 22 -6.02 22 -5 22 C-5 22.99 -5 23.98 -5 25 C-3.35 25 -1.7 25 0 25 C0 25.99 0 26.98 0 28 C-1.65 28 -3.3 28 -5 28 C-4.505 29.485 -4.505 29.485 -4 31 C-2.10820797 31.6814823 -2.10820797 31.6814823 0 32 C3 33 3 33 4 35 C7.02934491 35.65772428 7.02934491 35.65772428 10 36 C10 36.99 10 37.98 10 39 C11.32 39 12.64 39 14 39 C14 39.99 14 40.98 14 42 C14.8971875 42.185625 14.8971875 42.185625 15.8125 42.375 C18 43 18 43 21 45 C23.0492094 45.45139459 23.0492094 45.45139459 25.1875 45.625 C26.445625 45.74875 27.70375 45.8725 29 46 C29.495 50.455 29.495 50.455 30 55 C29.67 54.34 29.34 53.68 29 53 C27.68 53 26.36 53 25 53 C25 52.01 25 51.02 25 50 C22.36 50 19.72 50 17 50 C17 49.01 17 48.02 17 47 C16.01 47 15.02 47 14 47 C14 46.01 14 45.02 14 44 C12.68 44 11.36 44 10 44 C10 43.34 10 42.68 10 42 C7.69 42 5.38 42 3 42 C3 41.01 3 40.02 3 39 C2.01 39 1.02 39 0 39 C0 38.01 0 37.02 0 36 C-2.64 36 -5.28 36 -8 36 C-8 35.01 -8 34.02 -8 33 C-10.31 33 -12.62 33 -15 33 C-15 32.34 -15 31.68 -15 31 C-16.32 31 -17.64 31 -19 31 C-19 30.01 -19 29.02 -19 28 C-21.64 28 -24.28 28 -27 28 C-27 27.01 -27 26.02 -27 25 C-27.99 25 -28.98 25 -30 25 C-30 24.01 -30 23.02 -30 22 C-30.99 22 -31.98 22 -33 22 C-33 20.35 -33 18.7 -33 17 C-34.65 17 -36.3 17 -38 17 C-38 16.01 -38 15.02 -38 14 C-39.65 14 -41.3 14 -43 14 C-43 10.37 -43 6.74 -43 3 C-41.35 3 -39.7 3 -38 3 C-38 2.01 -38 1.02 -38 0 C-25.3028904 -1.47824977 -12.70421511 -1.32483435 0 0 Z " fill="#1D780F" transform="translate(75,51)"/>
<path d="M0 0 C2.31 0 4.62 0 7 0 C7 57.42 7 114.84 7 174 C4.69 174 2.38 174 0 174 C0 116.58 0 59.16 0 0 Z " fill="#89C47A" transform="translate(164,28)"/>
<path d="M0 0 C1.32 0 2.64 0 4 0 C4 77.55 4 155.1 4 235 C2.68 235 1.36 235 0 235 C0.33 218.5 0.66 202 1 185 C0.01 185 -0.98 185 -2 185 C-2 185.99 -2 186.98 -2 188 C-3.32 188 -4.64 188 -6 188 C-6 187.01 -6 186.02 -6 185 C-6.99 184.67 -7.98 184.34 -9 184 C-6.69 184 -4.38 184 -2 184 C-2 168.49 -2 152.98 -2 137 C-3.32 137 -4.64 137 -6 137 C-6 136.01 -6 135.02 -6 134 C-6.99 134 -7.98 134 -9 134 C-9 133.01 -9 132.02 -9 131 C-4.545 129.02 -4.545 129.02 0 127 C0.33 120.07 0.66 113.14 1 106 C-2.3 106 -5.6 106 -9 106 C-9 104.35 -9 102.7 -9 101 C-6.69 101 -4.38 101 -2 101 C-2 84.5 -2 68 -2 51 C-3.32 50.67 -4.64 50.34 -6 50 C-3.03 49.505 -3.03 49.505 0 49 C0 32.83 0 16.66 0 0 Z " fill="#2F6A23" transform="translate(226,0)"/>
<path d="M0 0 C1.258125 -0.020625 2.51625 -0.04125 3.8125 -0.0625 C4.52019531 -0.07410156 5.22789063 -0.08570312 5.95703125 -0.09765625 C8 0 8 0 11 1 C12.89212737 1.22179785 14.78884472 1.40614015 16.6875 1.5625 C17.68136719 1.64628906 18.67523438 1.73007813 19.69921875 1.81640625 C20.83810547 1.90728516 20.83810547 1.90728516 22 2 C22 2.99 22 3.98 22 5 C22.99 5 23.98 5 25 5 C25 5.99 25 6.98 25 8 C27.64 8 30.28 8 33 8 C33 8.99 33 9.98 33 11 C34.32 11 35.64 11 37 11 C37 11.66 37 12.32 37 13 C37.99 13 38.98 13 40 13 C40 14.98 40 16.96 40 19 C41.32 19 42.64 19 44 19 C44 19.99 44 20.98 44 22 C43.01 22.33 42.02 22.66 41 23 C41.59393382 24.29640378 42.20057989 25.58698839 42.8125 26.875 C43.14894531 27.59429687 43.48539063 28.31359375 43.83203125 29.0546875 C44.99467097 31.30542806 44.99467097 31.30542806 48 33 C48.96876372 36.29990566 49.11974289 39.43985268 49.09765625 42.86328125 C49.09443359 43.74951172 49.09121094 44.63574219 49.08789062 45.54882812 C49.07532227 46.9168457 49.07532227 46.9168457 49.0625 48.3125 C49.05798828 49.24384766 49.05347656 50.17519531 49.04882812 51.13476562 C49.03709234 53.42324373 49.02067363 55.71158808 49 58 C47.35 58 45.7 58 44 58 C44.495 59.98 44.495 59.98 45 62 C42.525 62.495 42.525 62.495 40 63 C40 61.35 40 59.7 40 58 C39.01 58 38.02 58 37 58 C37 54.37 37 50.74 37 47 C36.01 47 35.02 47 34 47 C33.80083984 45.98679687 33.80083984 45.98679687 33.59765625 44.953125 C33.42105469 44.06109375 33.24445313 43.1690625 33.0625 42.25 C32.88847656 41.36828125 32.71445313 40.4865625 32.53515625 39.578125 C32.07631512 37.36764947 31.56663926 35.18487932 31 33 C29.02 33 27.04 33 25 33 C24.90912109 31.86111328 24.90912109 31.86111328 24.81640625 30.69921875 C24.69072266 29.20841797 24.69072266 29.20841797 24.5625 27.6875 C24.48128906 26.70136719 24.40007812 25.71523437 24.31640625 24.69921875 C24.08187441 21.90624401 24.08187441 21.90624401 23 19 C23.66 19 24.32 19 25 19 C25 18.01 25 17.02 25 16 C22.69 16 20.38 16 18 16 C18 15.01 18 14.02 18 13 C17.01 13 16.02 13 15 13 C15 12.34 15 11.68 15 11 C13.68 11 12.36 11 11 11 C11 10.01 11 9.02 11 8 C8.36 8 5.72 8 3 8 C3 6.02 3 4.04 3 2 C2.01 2 1.02 2 0 2 C0 1.34 0 0.68 0 0 Z " fill="#ECF12C" transform="translate(67,93)"/>
<path d="M0 0 C0.33 0 0.66 0 1 0 C1 9.24 1 18.48 1 28 C2.65 28 4.3 28 6 28 C6 31.63 6 35.26 6 39 C6.99 39 7.98 39 9 39 C9 39.99 9 40.98 9 42 C12.465 42.495 12.465 42.495 16 43 C16 43.99 16 44.98 16 46 C17.32 46 18.64 46 20 46 C20 47.32 20 48.64 20 50 C22.64 50 25.28 50 28 50 C28 50.99 28 51.98 28 53 C42.85 53 57.7 53 73 53 C73 52.01 73 51.02 73 50 C76.3 50 79.6 50 83 50 C83 48.68 83 47.36 83 46 C84.65 46 86.3 46 88 46 C88 45.01 88 44.02 88 43 C90.97 43 93.94 43 97 43 C96.4375 46.3125 96.4375 46.3125 95 50 C90.96815213 52.35825064 87.66757161 53.42432469 83 53 C83 54.32 83 55.64 83 57 C82.01 57 81.02 57 80 57 C80 56.01 80 55.02 80 54 C77.69 54 75.38 54 73 54 C73 54.99 73 55.98 73 57 C71.68 57 70.36 57 69 57 C69 56.34 69 55.68 69 55 C68.31607178 55.15251221 67.63214355 55.30502441 66.92749023 55.4621582 C61.71045766 56.42063729 56.42136845 56.67103764 51.13500977 57.03979492 C49.07145608 57.18686171 47.00957492 57.35019164 44.94726562 57.51367188 C42.97983398 57.65192383 42.97983398 57.65192383 40.97265625 57.79296875 C39.77906494 57.8808667 38.58547363 57.96876465 37.35571289 58.05932617 C33.83853564 57.99714545 31.25531863 57.28594849 28 56 C28 55.34 28 54.68 28 54 C26.35 54 24.7 54 23 54 C23 54.99 23 55.98 23 57 C22.01 57 21.02 57 20 57 C20 55.68 20 54.36 20 53 C18.68 53 17.36 53 16 53 C16 52.01 16 51.02 16 50 C15.01 50 14.02 50 13 50 C13 48.68 13 47.36 13 46 C11.68 46 10.36 46 9 46 C9 45.01 9 44.02 9 43 C5.37 42.67 1.74 42.34 -2 42 C-2 41.01 -2 40.02 -2 39 C-4.31 39 -6.62 39 -9 39 C-9.11618764 35.08358289 -9.18724654 31.16760899 -9.25 27.25 C-9.28351562 26.13882813 -9.31703125 25.02765625 -9.3515625 23.8828125 C-9.36445313 22.81289062 -9.37734375 21.74296875 -9.390625 20.640625 C-9.41157227 19.65610352 -9.43251953 18.67158203 -9.45410156 17.65722656 C-8.88098889 14.30359304 -7.56715917 13.14077979 -5 11 C-5.33 12.98 -5.66 14.96 -6 17 C-5.01 17 -4.02 17 -3 17 C-3.04125 16.05125 -3.0825 15.1025 -3.125 14.125 C-3 11 -3 11 -1 9 C-0.53993654 6.79749008 -0.53993654 6.79749008 -0.375 4.375 C-0.30023438 3.55773437 -0.22546875 2.74046875 -0.1484375 1.8984375 C-0.09945313 1.27195313 -0.05046875 0.64546875 0 0 Z " fill="#267406" transform="translate(9,131)"/>
<path d="M0 0 C10.56 0 21.12 0 32 0 C32 0.99 32 1.98 32 3 C35.96 3 39.92 3 44 3 C44 3.99 44 4.98 44 6 C45.093125 5.979375 46.18625 5.95875 47.3125 5.9375 C51 6 51 6 54 7 C54 9.31 54 11.62 54 14 C55.32 14 56.64 14 58 14 C58 15.32 58 16.64 58 18 C56.68 18 55.36 18 54 18 C54 18.99 54 19.98 54 21 C48.06 21 42.12 21 36 21 C36 20.01 36 19.02 36 18 C33.69 17.67 31.38 17.34 29 17 C29 16.01 29 15.02 29 14 C27.68 14 26.36 14 25 14 C25 12.68 25 11.36 25 10 C24.01 10 23.02 10 22 10 C22 9.01 22 8.02 22 7 C21.24976562 7.01160156 20.49953125 7.02320313 19.7265625 7.03515625 C13.07662583 7.0937829 6.59995127 6.81769308 0 6 C0 4.02 0 2.04 0 0 Z " fill="#D0F348" transform="translate(53,44)"/>
<path d="M0 0 C1.65 0 3.3 0 5 0 C5 0.99 5 1.98 5 3 C6.65 3 8.3 3 10 3 C10 3.66 10 4.32 10 5 C11.98 5 13.96 5 16 5 C16 5.99 16 6.98 16 8 C17.65 8 19.3 8 21 8 C21 8.99 21 9.98 21 11 C21.99 11 22.98 11 24 11 C24 11.99 24 12.98 24 14 C25.32 14 26.64 14 28 14 C28 14.66 28 15.32 28 16 C28.99 16 29.98 16 31 16 C31 16.99 31 17.98 31 19 C32.32 19 33.64 19 35 19 C35 19.99 35 20.98 35 22 C28.73 22 22.46 22 16 22 C16 22.99 16 23.98 16 25 C14.02 25 12.04 25 10 25 C10 25.66 10 26.32 10 27 C6.7 27 3.4 27 0 27 C0 27.99 0 28.98 0 30 C-0.99 30 -1.98 30 -3 30 C-3 30.99 -3 31.98 -3 33 C-4.32 33 -5.64 33 -7 33 C-7 33.99 -7 34.98 -7 36 C-7.99 36 -8.98 36 -10 36 C-10 37.65 -10 39.3 -10 41 C-11.32 41 -12.64 41 -14 41 C-14 42.98 -14 44.96 -14 47 C-14.99 47 -15.98 47 -17 47 C-17 48.65 -17 50.3 -17 52 C-18.65 52 -20.3 52 -22 52 C-22 51.34 -22 50.68 -22 50 C-22.99 49.67 -23.98 49.34 -25 49 C-25.79953138 45.71303767 -26.09658936 44.28976808 -25 41 C-21.7 40.34 -18.4 39.68 -15 39 C-14.505 36.03 -14.505 36.03 -14 33 C-12.68 33 -11.36 33 -10 33 C-10 32.01 -10 31.02 -10 30 C-9.01 30 -8.02 30 -7 30 C-7 28.68 -7 27.36 -7 26 C-5.68 25.67 -4.36 25.34 -3 25 C-3 23.02 -3 21.04 -3 19 C1.29 19 5.58 19 10 19 C10 18.01 10 17.02 10 16 C11.98 16 13.96 16 16 16 C16 14.35 16 12.7 16 11 C14.02 11 12.04 11 10 11 C10 10.01 10 9.02 10 8 C8.35 8 6.7 8 5 8 C5 7.34 5 6.68 5 6 C2.525 5.505 2.525 5.505 0 5 C0 3.35 0 1.7 0 0 Z " fill="#2D7403" transform="translate(32,79)"/>
<path d="M0 0 C0.99 0 1.98 0 3 0 C3 56.76 3 113.52 3 172 C2.01 172 1.02 172 0 172 C0 115.24 0 58.48 0 0 Z " fill="#AFEEA3" transform="translate(164,30)"/>
<path d="M0 0 C0.99 0 1.98 0 3 0 C3.125 5.75 3.125 5.75 2 8 C1.01 8 0.02 8 -1 8 C-1 12.62 -1 17.24 -1 22 C0.32 22 1.64 22 3 22 C3 25.63 3 29.26 3 33 C3.66 33 4.32 33 5 33 C5.33 36.63 5.66 40.26 6 44 C7.36125 44.185625 7.36125 44.185625 8.75 44.375 C11.62855172 44.92856764 13.47650196 45.60772522 16 47 C17.485 47.495 17.485 47.495 19 48 C19 48.99 19 49.98 19 51 C15.04 51 11.08 51 7 51 C6.67 50.01 6.34 49.02 6 48 C3.69 48 1.38 48 -1 48 C-1.061875 47.05125 -1.12375 46.1025 -1.1875 45.125 C-1.5896875 43.578125 -1.5896875 43.578125 -2 42 C-4.47130918 40.84478498 -4.47130918 40.84478498 -7 40 C-8.07997668 37.0898832 -8.10777077 34.32841213 -8.0625 31.25 C-8.05347656 30.45078125 -8.04445313 29.6515625 -8.03515625 28.828125 C-8.02355469 28.22484375 -8.01195312 27.6215625 -8 27 C-8.99 27 -9.98 27 -11 27 C-11 23.37 -11 19.74 -11 16 C-10.01 16 -9.02 16 -8 16 C-8.103125 14.7625 -8.20625 13.525 -8.3125 12.25 C-8.33151722 8.67476315 -8.23993057 8.2525585 -5.625 5.5 C-3 4 -3 4 -1 4 C-0.67 2.68 -0.34 1.36 0 0 Z " fill="#EFEC1D" transform="translate(26,126)"/>
<path d="M0 0 C0 0.99 0 1.98 0 3 C-5.21979128 3.1799928 -9.07262981 2.97094808 -14 1 C-14.33 1.66 -14.66 2.32 -15 3 C-17.31 3 -19.62 3 -22 3 C-21.814375 3.66 -21.62875 4.32 -21.4375 5 C-20.86972692 8.89330114 -21.40718293 12.11375479 -22 16 C-23.65 16.33 -25.3 16.66 -27 17 C-27 18.65 -27 20.3 -27 22 C-25.35 22 -23.7 22 -22 22 C-21.67 22.66 -21.34 23.32 -21 24 C-17.97065509 24.65772428 -17.97065509 24.65772428 -15 25 C-15 26.98 -15 28.96 -15 31 C-16.32 31 -17.64 31 -19 31 C-19 30.01 -19 29.02 -19 28 C-21.64 28 -24.28 28 -27 28 C-27 27.01 -27 26.02 -27 25 C-27.99 25 -28.98 25 -30 25 C-30 24.01 -30 23.02 -30 22 C-30.99 22 -31.98 22 -33 22 C-33 20.35 -33 18.7 -33 17 C-34.65 17 -36.3 17 -38 17 C-38 16.01 -38 15.02 -38 14 C-39.65 14 -41.3 14 -43 14 C-43 10.37 -43 6.74 -43 3 C-41.35 3 -39.7 3 -38 3 C-38 2.01 -38 1.02 -38 0 C-25.3028904 -1.47824977 -12.70421511 -1.32483435 0 0 Z " fill="#317803" transform="translate(75,51)"/>
<path d="M0 0 C0.99 0 1.98 0 3 0 C3 77.55 3 155.1 3 235 C2.01 235 1.02 235 0 235 C0 157.45 0 79.9 0 0 Z " fill="#D3ECD6" transform="translate(227,0)"/>
<path d="M0 0 C1.65 0 3.3 0 5 0 C5 0.99 5 1.98 5 3 C5.66 3 6.32 3 7 3 C7 2.01 7 1.02 7 0 C8.32 0 9.64 0 11 0 C11.66 2.64 12.32 5.28 13 8 C13.804375 8.12375 14.60875 8.2475 15.4375 8.375 C16.283125 8.58125 17.12875 8.7875 18 9 C19.20029908 11.40059817 19.11459743 12.89360649 19.09765625 15.5703125 C19.09443359 16.46621094 19.09121094 17.36210937 19.08789062 18.28515625 C19.07951172 19.22230469 19.07113281 20.15945312 19.0625 21.125 C19.05798828 22.06988281 19.05347656 23.01476562 19.04882812 23.98828125 C19.03702357 26.32558387 19.02055759 28.66276061 19 31 C17.35 31 15.7 31 14 31 C14.33 32.32 14.66 33.64 15 35 C12.525 35.495 12.525 35.495 10 36 C10 34.35 10 32.7 10 31 C9.01 31 8.02 31 7 31 C7 27.37 7 23.74 7 20 C6.01 20 5.02 20 4 20 C3.81824219 18.98679688 3.81824219 18.98679688 3.6328125 17.953125 C3.46523437 17.06109375 3.29765625 16.1690625 3.125 15.25 C2.96257812 14.36828125 2.80015625 13.4865625 2.6328125 12.578125 C2.10347524 10.01117679 2.10347524 10.01117679 0.9375 7.875 C-0.38385008 5.23229983 -0.13209837 2.90616409 0 0 Z " fill="#EEEB1C" transform="translate(97,120)"/>
<path d="M0 0 C2.64 0 5.28 0 8 0 C8 0.66 8 1.32 8 2 C7.236875 2.268125 6.47375 2.53625 5.6875 2.8125 C3.09503074 3.95800967 1.91184456 4.99711522 0 7 C-0.66 7 -1.32 7 -2 7 C-2 7.66 -2 8.32 -2 9 C-2.66 9 -3.32 9 -4 9 C-5.20313816 12.28857764 -6.02328676 15.1962741 -6.4375 18.6875 C-7 22 -7 22 -8.5 23.4375 C-11.04642654 26.09002765 -10.70709863 29.42660334 -11 33 C-11.99 33 -12.98 33 -14 33 C-14 36.63 -14 40.26 -14 44 C-13.01 44 -12.02 44 -11 44 C-10.67 48.29 -10.34 52.58 -10 57 C-8.35 57.66 -6.7 58.32 -5 59 C-4.1875 62.125 -4.1875 62.125 -4 65 C-6.31 64.67 -8.62 64.34 -11 64 C-11 63.01 -11 62.02 -11 61 C-11.99 61 -12.98 61 -14 61 C-14 57.37 -14 53.74 -14 50 C-15.65 50 -17.3 50 -19 50 C-19 40.76 -19 31.52 -19 22 C-17.35 22 -15.7 22 -14 22 C-14 20.35 -14 18.7 -14 17 C-13.01 17 -12.02 17 -11 17 C-11 15.02 -11 13.04 -11 11 C-9.68 11 -8.36 11 -7 11 C-7 9.35 -7 7.7 -7 6 C-6.01 6 -5.02 6 -4 6 C-4 5.01 -4 4.02 -4 3 C-2.68 3 -1.36 3 0 3 C0 2.01 0 1.02 0 0 Z " fill="#D6EC3D" transform="translate(29,109)"/>
<path d="M0 0 C1.61514688 0.04014798 3.23038887 0.07664652 4.84570312 0.109375 C8.79532023 0.19734954 12.7403698 0.33525903 16.6875 0.5 C16.6875 1.82 16.6875 3.14 16.6875 4.5 C11.0775 4.5 5.4675 4.5 -0.3125 4.5 C-0.3125 5.49 -0.3125 6.48 -0.3125 7.5 C-3.9425 7.5 -7.5725 7.5 -11.3125 7.5 C-11.3125 8.49 -11.3125 9.48 -11.3125 10.5 C-17.7475 10.995 -17.7475 10.995 -24.3125 11.5 C-24.3125 12.49 -24.3125 13.48 -24.3125 14.5 C-25.6325 14.5 -26.9525 14.5 -28.3125 14.5 C-28.3125 19.12 -28.3125 23.74 -28.3125 28.5 C-31.3125 29.5 -31.3125 29.5 -34.3125 28.5 C-35.36226964 25.35069107 -35.41381595 23.11185544 -35.375 19.8125 C-35.36597656 18.81863281 -35.35695313 17.82476562 -35.34765625 16.80078125 C-35.33605469 16.04152344 -35.32445313 15.28226563 -35.3125 14.5 C-33.9925 14.5 -32.6725 14.5 -31.3125 14.5 C-30.9825 13.18 -30.6525 11.86 -30.3125 10.5 C-29.095625 10.335 -27.87875 10.17 -26.625 10 C-24.33000486 9.5566539 -24.33000486 9.5566539 -22.3125 8.5 C-21.3554513 6.60030299 -21.3554513 6.60030299 -20.625 4.4375 C-16.62905005 -2.42194445 -6.92194574 -0.29744654 0 0 Z " fill="#2C7402" transform="translate(53.3125,39.5)"/>
<path d="M0 0 C0 2.64 0 5.28 0 8 C0.99 8.33 1.98 8.66 3 9 C3 9.66 3 10.32 3 11 C4.670625 10.9690625 4.670625 10.9690625 6.375 10.9375 C10 11 10 11 12 12 C12 14.31 12 16.62 12 19 C9.03 19 6.06 19 3 19 C3 16.69 3 14.38 3 12 C-0.3 11.67 -3.6 11.34 -7 11 C-7 10.01 -7 9.02 -7 8 C-10.96 8 -14.92 8 -19 8 C-19 7.01 -19 6.02 -19 5 C-21.64 5 -24.28 5 -27 5 C-26.67 3.68 -26.34 2.36 -26 1 C-22.60426181 0.83135681 -19.20839586 0.66543535 -15.8125 0.5 C-14.37293945 0.42845703 -14.37293945 0.42845703 -12.90429688 0.35546875 C-11.50727539 0.28779297 -11.50727539 0.28779297 -10.08203125 0.21875 C-9.22843018 0.17685547 -8.3748291 0.13496094 -7.49536133 0.09179688 C-4.99442835 -0.00020496 -2.50237795 -0.0156766 0 0 Z " fill="#2B7001" transform="translate(104,39)"/>
<path d="M0 0 C3.63 0 7.26 0 11 0 C11 0.99 11 1.98 11 3 C7.32612505 3.85298376 3.9552607 4.10789471 0.1875 4.0625 C-1.27623047 4.04896484 -1.27623047 4.04896484 -2.76953125 4.03515625 C-3.50558594 4.02355469 -4.24164063 4.01195312 -5 4 C-5 4.99 -5 5.98 -5 7 C-6.65 7 -8.3 7 -10 7 C-10 10.63 -10 14.26 -10 18 C-8.35 18 -6.7 18 -5 18 C-5 20.64 -5 23.28 -5 26 C-7.64 26 -10.28 26 -13 26 C-13 24.35 -13 22.7 -13 21 C-14.32 21 -15.64 21 -17 21 C-17 16.38 -17 11.76 -17 7 C-15.68 7 -14.36 7 -13 7 C-13 6.01 -13 5.02 -13 4 C-9.98509443 2.99503148 -7.95818308 2.89664697 -4.8125 2.9375 C-3.91144531 2.94652344 -3.01039062 2.95554688 -2.08203125 2.96484375 C-1.39496094 2.97644531 -0.70789063 2.98804688 0 3 C0 2.01 0 1.02 0 0 Z " fill="#C3ED4F" transform="translate(42,47)"/>
<path d="M0 0 C0.99 0 1.98 0 3 0 C3 0.66 3 1.32 3 2 C4.2375 1.95875 5.475 1.9175 6.75 1.875 C10.00283562 1.875 12.28187717 2.04295156 15 4 C15.33 4.66 15.66 5.32 16 6 C19.02934491 6.65772428 19.02934491 6.65772428 22 7 C22 7.99 22 8.98 22 10 C23.32 10 24.64 10 26 10 C26 10.99 26 11.98 26 13 C26.598125 13.12375 27.19625 13.2475 27.8125 13.375 C30 14 30 14 33 16 C35.0492094 16.45139459 35.0492094 16.45139459 37.1875 16.625 C38.445625 16.74875 39.70375 16.8725 41 17 C41.495 21.455 41.495 21.455 42 26 C41.505 25.01 41.505 25.01 41 24 C39.68 24 38.36 24 37 24 C37 23.01 37 22.02 37 21 C34.36 21 31.72 21 29 21 C29 20.01 29 19.02 29 18 C28.01 18 27.02 18 26 18 C26 17.01 26 16.02 26 15 C24.68 15 23.36 15 22 15 C22 14.34 22 13.68 22 13 C19.69 13 17.38 13 15 13 C15 12.01 15 11.02 15 10 C14.01 10 13.02 10 12 10 C12 9.01 12 8.02 12 7 C9.36 7 6.72 7 4 7 C4 6.01 4 5.02 4 4 C1.69 4 -0.62 4 -3 4 C-3 3.34 -3 2.68 -3 2 C-2.01 2 -1.02 2 0 2 C0 1.34 0 0.68 0 0 Z " fill="#3D7903" transform="translate(63,80)"/>
<path d="M0 0 C0.99 0.33 1.98 0.66 3 1 C3.33 1.99 3.66 2.98 4 4 C4.99 4.33 5.98 4.66 7 5 C7 6.98 7 8.96 7 11 C7.99 11 8.98 11 10 11 C10 13.64 10 16.28 10 19 C11.32 19 12.64 19 14 19 C14 16.36 14 13.72 14 11 C14.66 11 15.32 11 16 11 C16.33 14.63 16.66 18.26 17 22 C17.9075 22.12375 18.815 22.2475 19.75 22.375 C22.62855172 22.92856764 24.47650196 23.60772522 27 25 C27.99 25.33 28.98 25.66 30 26 C30 26.99 30 27.98 30 29 C26.04 29 22.08 29 18 29 C17.67 28.01 17.34 27.02 17 26 C14.69 26 12.38 26 10 26 C9.938125 25.05125 9.87625 24.1025 9.8125 23.125 C9.4103125 21.578125 9.4103125 21.578125 9 20 C6.52869082 18.84478498 6.52869082 18.84478498 4 18 C2.92002332 15.0898832 2.89222923 12.32841213 2.9375 9.25 C2.94652344 8.45078125 2.95554687 7.6515625 2.96484375 6.828125 C2.97644531 6.22484375 2.98804688 5.6215625 3 5 C2.01 5 1.02 5 0 5 C0 3.35 0 1.7 0 0 Z " fill="#EAF125" transform="translate(15,148)"/>
<path d="M0 0 C3.37462715 0.54723683 5.08235 1.0549 8 3 C8.36162029 4.32594105 8.69728039 5.65938457 9 7 C9.66 7.33 10.32 7.66 11 8 C11.99 9.485 11.99 9.485 13 11 C13.99 11 14.98 11 16 11 C16 11.99 16 12.98 16 14 C19.72910066 14.0582462 23.45808364 14.09367917 27.1875 14.125 C28.24259766 14.14175781 29.29769531 14.15851563 30.38476562 14.17578125 C31.91713867 14.18544922 31.91713867 14.18544922 33.48046875 14.1953125 C34.88655396 14.21102295 34.88655396 14.21102295 36.32104492 14.22705078 C39.49199705 13.95830154 42.67559744 13.32440256 45 11 C47.33297433 10.95907063 49.66705225 10.95758277 52 11 C52 11.99 52 12.98 52 14 C48.32589215 15.17571451 44.83070817 15.07366746 41 15 C41 15.99 41 16.98 41 18 C32.75 18 24.5 18 16 18 C16 17.01 16 16.02 16 15 C13.36 14.67 10.72 14.34 8 14 C8 13.01 8 12.02 8 11 C7.01 11 6.02 11 5 11 C5 10.01 5 9.02 5 8 C3.35 8 1.7 8 0 8 C0 5.36 0 2.72 0 0 Z " fill="#537C04" transform="translate(37,159)"/>
<path d="M0 0 C5.77759884 -0.12036664 11.27959989 0.1679418 17 1 C17 1.66 17 2.32 17 3 C18.32 3 19.64 3 21 3 C21 5.97 21 8.94 21 12 C19.06257659 12.02703381 17.12504521 12.04641125 15.1875 12.0625 C14.10855469 12.07410156 13.02960938 12.08570313 11.91796875 12.09765625 C9 12 9 12 6 11 C6 10.01 6 9.02 6 8 C5.38125 7.9175 4.7625 7.835 4.125 7.75 C2 7 2 7 0.75 5.125 C0 3 0 3 0 0 Z " fill="#E7EC1D" transform="translate(83,50)"/>
<path d="M0 0 C2.31 0 4.62 0 7 0 C7 17.82 7 35.64 7 54 C4.69 54 2.38 54 0 54 C0 53.01 0 52.02 0 51 C1.32 51 2.64 51 4 51 C4 34.5 4 18 4 1 C2.68 0.67 1.36 0.34 0 0 Z " fill="#62A255" transform="translate(220,50)"/>
<path d="M0 0 C1.134375 0.020625 2.26875 0.04125 3.4375 0.0625 C3.4375 1.0525 3.4375 2.0425 3.4375 3.0625 C4.4275 3.0625 5.4175 3.0625 6.4375 3.0625 C6.3239371 4.70916203 6.19632619 6.35486082 6.0625 8 C5.99289063 8.91652344 5.92328125 9.83304688 5.8515625 10.77734375 C5.71492188 11.53144531 5.57828125 12.28554687 5.4375 13.0625 C2.72094597 14.42077701 0.52960594 14.1948445 -2.5 14.1875 C-3.56089844 14.19007813 -4.62179688 14.19265625 -5.71484375 14.1953125 C-8.5625 14.0625 -8.5625 14.0625 -11.5625 13.0625 C-11.2325 11.4125 -10.9025 9.7625 -10.5625 8.0625 C-8.5825 8.0625 -6.6025 8.0625 -4.5625 8.0625 C-4.583125 6.928125 -4.60375 5.79375 -4.625 4.625 C-4.54525862 0.07974138 -4.54525862 0.07974138 0 0 Z " fill="#1C7816" transform="translate(71.5625,158.9375)"/>
<path d="M0 0 C3.96 0 7.92 0 12 0 C12 0.66 12 1.32 12 2 C12.99 2 13.98 2 15 2 C15 2.99 15 3.98 15 5 C16.32 5 17.64 5 19 5 C19 5.99 19 6.98 19 8 C19.99 8 20.98 8 22 8 C22 8.99 22 9.98 22 11 C20.56344146 11.08131463 19.1255517 11.13933559 17.6875 11.1875 C16.88699219 11.22230469 16.08648437 11.25710937 15.26171875 11.29296875 C13 11 13 11 11.53125 9.5 C10.05741236 7.75059636 10.05741236 7.75059636 7.51953125 7.70703125 C6.62621094 7.74183594 5.73289062 7.77664062 4.8125 7.8125 C3.91144531 7.83957031 3.01039062 7.86664063 2.08203125 7.89453125 C1.39496094 7.92933594 0.70789062 7.96414062 0 8 C0 7.01 0 6.02 0 5 C-2.31 5 -4.62 5 -7 5 C-7 4.01 -7 3.02 -7 2 C-4.69 2 -2.38 2 0 2 C0 1.34 0 0.68 0 0 Z " fill="#3D7A07" transform="translate(63,104)"/>
<path d="M0 0 C2.97 0 5.94 0 9 0 C8.4375 3.3125 8.4375 3.3125 7 7 C2.96815213 9.35825064 -0.33242839 10.42432469 -5 10 C-5 11.32 -5 12.64 -5 14 C-5.99 14 -6.98 14 -8 14 C-8 13.01 -8 12.02 -8 11 C-10.31 11 -12.62 11 -15 11 C-15 11.99 -15 12.98 -15 14 C-16.32 14 -17.64 14 -19 14 C-19.33 13.34 -19.66 12.68 -20 12 C-22.35599235 11.53248212 -22.35599235 11.53248212 -25.0625 11.375 C-25.98160156 11.30023438 -26.90070313 11.22546875 -27.84765625 11.1484375 C-28.55792969 11.09945312 -29.26820312 11.05046875 -30 11 C-30 10.67 -30 10.34 -30 10 C-25.05 10 -20.1 10 -15 10 C-15 9.01 -15 8.02 -15 7 C-11.7 7 -8.4 7 -5 7 C-5 5.68 -5 4.36 -5 3 C-3.35 3 -1.7 3 0 3 C0 2.01 0 1.02 0 0 Z " fill="#2C6A00" transform="translate(97,174)"/>
<path d="M0 0 C1.65 0 3.3 0 5 0 C5 1.65 5 3.3 5 5 C5.99 5 6.98 5 8 5 C8 5.99 8 6.98 8 8 C8.99 8 9.98 8 11 8 C11 10.64 11 13.28 11 16 C9.02 16 7.04 16 5 16 C5 15.34 5 14.68 5 14 C3.35 14 1.7 14 0 14 C0 13.01 0 12.02 0 11 C-1.65 11 -3.3 11 -5 11 C-5 10.01 -5 9.02 -5 8 C-5.99 8 -6.98 8 -8 8 C-8 7.01 -8 6.02 -8 5 C-5.36 5 -2.72 5 0 5 C0 3.35 0 1.7 0 0 Z " fill="#D6ED44" transform="translate(37,68)"/>
<path d="M0 0 C0.99 0 1.98 0 3 0 C3 17.49 3 34.98 3 53 C2.01 53 1.02 53 0 53 C0 35.51 0 18.02 0 0 Z " fill="#61A453" transform="translate(224,131)"/>
<path d="M0 0 C1.32 0 2.64 0 4 0 C4.02692484 2.29160319 4.04636124 4.58329546 4.0625 6.875 C4.07410156 8.15117187 4.08570312 9.42734375 4.09765625 10.7421875 C4 14 4 14 3 16 C2.01 16 1.02 16 0 16 C0 17.32 0 18.64 0 20 C-2.97 20 -5.94 20 -9 20 C-9 18.02 -9 16.04 -9 14 C-7.68 14 -6.36 14 -5 14 C-5 11.36 -5 8.72 -5 6 C-3.35 6 -1.7 6 0 6 C0 4.02 0 2.04 0 0 Z " fill="#2F7002" transform="translate(116,153)"/>
<path d="M0 0 C6.28260706 -0.23268915 11.88019467 0.59545452 18 2 C18 4.97 18 7.94 18 11 C19.32 11 20.64 11 22 11 C22 12.65 22 14.3 22 16 C20.68 16 19.36 16 18 16 C18 15.01 18 14.02 18 13 C17.01 13 16.02 13 15 13 C15 12.34 15 11.68 15 11 C13.68 11 12.36 11 11 11 C11 10.01 11 9.02 11 8 C8.36 8 5.72 8 3 8 C3 6.02 3 4.04 3 2 C2.01 2 1.02 2 0 2 C0 1.34 0 0.68 0 0 Z " fill="#E5EB20" transform="translate(67,93)"/>
<path d="M0 0 C1.65 0 3.3 0 5 0 C5 2.64 5 5.28 5 8 C3.35 8 1.7 8 0 8 C0 10.64 0 13.28 0 16 C-0.99 16 -1.98 16 -3 16 C-3 16.99 -3 17.98 -3 19 C-5.31 19 -7.62 19 -10 19 C-11.37432457 15.18243176 -10.67975039 11.92744671 -10 8 C-7.69 8 -5.38 8 -3 8 C-3 7.01 -3 6.02 -3 5 C-2.34 4.67 -1.68 4.34 -1 4 C-0.34786708 1.97536745 -0.34786708 1.97536745 0 0 Z " fill="#337503" transform="translate(92,151)"/>
<path d="M0 0 C0.66 0 1.32 0 2 0 C2 1.98 2 3.96 2 6 C3.65 6 5.3 6 7 6 C7 8.64 7 11.28 7 14 C7.99 14 8.98 14 10 14 C10 17.63 10 21.26 10 25 C7.36 25 4.72 25 2 25 C1.91697632 24.12263184 1.91697632 24.12263184 1.83227539 23.22753906 C1.57882735 20.56804892 1.32071175 17.90903168 1.0625 15.25 C0.97548828 14.32960937 0.88847656 13.40921875 0.79882812 12.4609375 C0.71181641 11.57148438 0.62480469 10.68203125 0.53515625 9.765625 C0.456604 8.94868164 0.37805176 8.13173828 0.29711914 7.29003906 C0.04953463 4.98951656 0.04953463 4.98951656 -0.59594727 2.76464844 C-0.72928467 2.18231445 -0.86262207 1.59998047 -1 1 C-0.67 0.67 -0.34 0.34 0 0 Z " fill="#307304" transform="translate(90,123)"/>
<path d="M0 0 C1.2065625 0.0309375 1.2065625 0.0309375 2.4375 0.0625 C2.4375 1.0525 2.4375 2.0425 2.4375 3.0625 C-0.2025 3.3925 -2.8425 3.7225 -5.5625 4.0625 C-5.5625 5.0525 -5.5625 6.0425 -5.5625 7.0625 C-6.8825 7.0625 -8.2025 7.0625 -9.5625 7.0625 C-9.5625 11.6825 -9.5625 16.3025 -9.5625 21.0625 C-12.5625 22.0625 -12.5625 22.0625 -15.5625 21.0625 C-16.61226964 17.91319107 -16.66381595 15.67435544 -16.625 12.375 C-16.61597656 11.38113281 -16.60695313 10.38726562 -16.59765625 9.36328125 C-16.58605469 8.60402344 -16.57445313 7.84476563 -16.5625 7.0625 C-15.2425 7.0625 -13.9225 7.0625 -12.5625 7.0625 C-12.2325 5.7425 -11.9025 4.4225 -11.5625 3.0625 C-10.99660156 2.92972656 -10.43070313 2.79695313 -9.84765625 2.66015625 C-8.74744141 2.39525391 -8.74744141 2.39525391 -7.625 2.125 C-6.89410156 1.95097656 -6.16320312 1.77695312 -5.41015625 1.59765625 C-2.79322939 0.83968801 -2.95803984 0.07214731 0 0 Z " fill="#367001" transform="translate(34.5625,46.9375)"/>
<path d="M0 0 C2.64 0 5.28 0 8 0 C8 0.99 8 1.98 8 3 C7.01 3.495 7.01 3.495 6 4 C5.59270772 6.32156597 5.25561323 8.6568787 5 11 C4.11634766 11.12181641 4.11634766 11.12181641 3.21484375 11.24609375 C-0.35600851 12.46156903 -1.90243756 15.35611827 -4.12109375 18.28515625 C-6 20 -6 20 -8.72265625 20.24609375 C-9.84994141 20.12427734 -9.84994141 20.12427734 -11 20 C-11 18.02 -11 16.04 -11 14 C-9.35 14 -7.7 14 -6 14 C-6 13.01 -6 12.02 -6 11 C-5.01 11 -4.02 11 -3 11 C-3 9.35 -3 7.7 -3 6 C-2.01 6 -1.02 6 0 6 C0 4.02 0 2.04 0 0 Z " fill="#468206" transform="translate(48,109)"/>
<path d="M0 0 C4.95 0 9.9 0 15 0 C15 1.65 15 3.3 15 5 C12.69 5 10.38 5 8 5 C8 5.99 8 6.98 8 8 C5.36 8 2.72 8 0 8 C0 8.99 0 9.98 0 11 C-0.99 11 -1.98 11 -3 11 C-3 10.01 -3 9.02 -3 8 C-3.99 8 -4.98 8 -6 8 C-6 6.35 -6 4.7 -6 3 C-4.02 3 -2.04 3 0 3 C0 2.01 0 1.02 0 0 Z " fill="#C2EF4D" transform="translate(48,101)"/>
<path d="M0 0 C1.65 0 3.3 0 5 0 C5 0.99 5 1.98 5 3 C6.093125 2.979375 7.18625 2.95875 8.3125 2.9375 C12 3 12 3 15 4 C15 6.31 15 8.62 15 11 C16.32 11 17.64 11 19 11 C19 12.32 19 13.64 19 15 C17.68 15 16.36 15 15 15 C15 15.99 15 16.98 15 18 C9.06 18 3.12 18 -3 18 C-3 17.01 -3 16.02 -3 15 C1.95 15 6.9 15 12 15 C12 12.03 12 9.06 12 6 C10.68 6 9.36 6 8 6 C8 5.34 8 4.68 8 4 C5.36 4 2.72 4 0 4 C0 2.68 0 1.36 0 0 Z " fill="#C6F157" transform="translate(92,47)"/>
<path d="M0 0 C1.65 0 3.3 0 5 0 C5.36088615 2.31146089 5.71354191 4.62420829 6.0625 6.9375 C6.25972656 8.22527344 6.45695312 9.51304687 6.66015625 10.83984375 C6.77230469 11.88269531 6.88445313 12.92554688 7 14 C6.67 14.33 6.34 14.66 6 15 C5.76807135 16.51469448 5.58784762 18.03754562 5.4375 19.5625 C5.31181641 20.80193359 5.31181641 20.80193359 5.18359375 22.06640625 C5.12300781 22.70449219 5.06242187 23.34257812 5 24 C3.35 24 1.7 24 0 24 C0 16.08 0 8.16 0 0 Z " fill="#327002" transform="translate(32,129)"/>
<path d="M0 0 C1.32 0 2.64 0 4 0 C4 0.99 4 1.98 4 3 C4.99 3 5.98 3 7 3 C7 3.99 7 4.98 7 6 C9.64 6 12.28 6 15 6 C15 6.99 15 7.98 15 9 C16.32 9 17.64 9 19 9 C19 9.66 19 10.32 19 11 C19.99 11 20.98 11 22 11 C22 11.99 22 12.98 22 14 C21.01 14 20.02 14 19 14 C18.67 14.66 18.34 15.32 18 16 C16.02 15.34 14.04 14.68 12 14 C12 12.35 12 10.7 12 9 C8.04 9 4.08 9 0 9 C-1.125 3.375 -1.125 3.375 0 0 Z " fill="#DFF040" transform="translate(85,95)"/>
<path d="M0 0 C0 0.99 0 1.98 0 3 C-5.21979128 3.1799928 -9.07262981 2.97094808 -14 1 C-14.33 1.66 -14.66 2.32 -15 3 C-17.31 3 -19.62 3 -22 3 C-22 4.32 -22 5.64 -22 7 C-24.64 7 -27.28 7 -30 7 C-29.74438677 4.6568787 -29.40729228 2.32156597 -29 0 C-21.74214646 -3.62892677 -7.81793552 -0.81527819 0 0 Z " fill="#327606" transform="translate(75,51)"/>
<path d="M0 0 C3.3 0 6.6 0 10 0 C10 0.99 10 1.98 10 3 C10.99 3 11.98 3 13 3 C13 3.99 13 4.98 13 6 C13.99 6 14.98 6 16 6 C16 6.99 16 7.98 16 9 C15.01 9 14.02 9 13 9 C13 10.65 13 12.3 13 14 C12.01 14 11.02 14 10 14 C10 12.35 10 10.7 10 9 C6.7 9 3.4 9 0 9 C0 8.01 0 7.02 0 6 C1.65 5.67 3.3 5.34 5 5 C5 4.34 5 3.68 5 3 C3.35 3 1.7 3 0 3 C0 2.01 0 1.02 0 0 Z " fill="#E2F73C" transform="translate(32,106)"/>
<path d="M0 0 C2.91691525 -0.05401695 5.83282724 -0.09368066 8.75 -0.125 C9.575 -0.14175781 10.4 -0.15851562 11.25 -0.17578125 C12.04921875 -0.18222656 12.8484375 -0.18867187 13.671875 -0.1953125 C14.4050293 -0.20578613 15.13818359 -0.21625977 15.89355469 -0.22705078 C18 0 18 0 22 2 C19.03 2 16.06 2 13 2 C14.28432339 5.49705129 14.28432339 5.49705129 16 9 C16.99 9.33 17.98 9.66 19 10 C19 10.99 19 11.98 19 13 C19.99 13.33 20.98 13.66 22 14 C15.375 14.125 15.375 14.125 12 13 C12 12.01 12 11.02 12 10 C10.68 10 9.36 10 8 10 C8 7.36 8 4.72 8 2 C5.36 2 2.72 2 0 2 C0 1.34 0 0.68 0 0 Z " fill="#D7F13D" transform="translate(70,48)"/>
<path d="M0 0 C2.31 0.33 4.62 0.66 7 1 C7 1.99 7 2.98 7 4 C11.95 4 16.9 4 22 4 C22 4.99 22 5.98 22 7 C19.69 7 17.38 7 15 7 C14.34 8.32 13.68 9.64 13 11 C12.67 10.34 12.34 9.68 12 9 C11.34 9 10.68 9 10 9 C10 9.99 10 10.98 10 12 C9.01 12 8.02 12 7 12 C7 10.35 7 8.7 7 7 C5.68 7 4.36 7 3 7 C3 6.01 3 5.02 3 4 C2.01 4 1.02 4 0 4 C0 2.68 0 1.36 0 0 Z " fill="#2A6F01" transform="translate(82,61)"/>
<path d="M0 0 C1.32 0 2.64 0 4 0 C4.33 4.29 4.66 8.58 5 13 C5.66 13 6.32 13 7 13 C7 14.32 7 15.64 7 17 C6.34 17 5.68 17 5 17 C5 17.66 5 18.32 5 19 C5.66 19 6.32 19 7 19 C7 23.62 7 28.24 7 33 C6.01 33 5.02 33 4 33 C4 25.74 4 18.48 4 11 C2.68 11 1.36 11 0 11 C0 7.37 0 3.74 0 0 Z " fill="#387A01" transform="translate(116,112)"/>
<path d="M0 0 C7.26 0 14.52 0 22 0 C22 1.32 22 2.64 22 4 C23.32 4 24.64 4 26 4 C26 4.99 26 5.98 26 7 C23.69 7 21.38 7 19 7 C19 6.01 19 5.02 19 4 C15.04 4 11.08 4 7 4 C7 3.34 7 2.68 7 2 C6.01 2 5.02 2 4 2 C4 2.66 4 3.32 4 4 C2.68 4 1.36 4 0 4 C0 2.68 0 1.36 0 0 Z " fill="#D8F750" transform="translate(56,177)"/>
<path d="M0 0 C0.99 0 1.98 0 3 0 C3 0.99 3 1.98 3 3 C5.31 3.33 7.62 3.66 10 4 C10 4.99 10 5.98 10 7 C11.32 7 12.64 7 14 7 C14 8.32 14 9.64 14 11 C16.64 11 19.28 11 22 11 C22 11.99 22 12.98 22 14 C18.04 14 14.08 14 10 14 C10 13.01 10 12.02 10 11 C9.01 11 8.02 11 7 11 C7 9.68 7 8.36 7 7 C5.68 7 4.36 7 3 7 C3 6.01 3 5.02 3 4 C2.01 4 1.02 4 0 4 C0 2.68 0 1.36 0 0 Z " fill="#3C7302" transform="translate(15,170)"/>
<path d="M0 0 C1.65 0 3.3 0 5 0 C5 0.99 5 1.98 5 3 C6.65 3 8.3 3 10 3 C10 3.66 10 4.32 10 5 C11.98 5 13.96 5 16 5 C16 5.99 16 6.98 16 8 C17.65 8 19.3 8 21 8 C21 8.99 21 9.98 21 11 C17.37 11 13.74 11 10 11 C10 10.01 10 9.02 10 8 C8.35 8 6.7 8 5 8 C5 7.34 5 6.68 5 6 C3.35 5.67 1.7 5.34 0 5 C0 3.35 0 1.7 0 0 Z " fill="#337403" transform="translate(32,79)"/>
<path d="M0 0 C2.97 0 5.94 0 9 0 C9 2.64 9 5.28 9 8 C10.32 8 11.64 8 13 8 C13 9.98 13 11.96 13 14 C11.68 14 10.36 14 9 14 C8.67 14.66 8.34 15.32 8 16 C8 14.35 8 12.7 8 11 C7.38640625 10.75378906 6.7728125 10.50757812 6.140625 10.25390625 C3.58926524 8.75940537 2.96588121 7.59603392 1.75 4.9375 C1.41484375 4.22464844 1.0796875 3.51179688 0.734375 2.77734375 C0 1 0 1 0 0 Z " fill="#D8F546" transform="translate(107,115)"/>
<path d="M0 0 C4.95 0 9.9 0 15 0 C15 0.99 15 1.98 15 3 C15.99 3 16.98 3 18 3 C18 3.99 18 4.98 18 6 C20.31 6 22.62 6 25 6 C25 6.66 25 7.32 25 8 C18.79895188 8.27560214 13.06815522 7.22899346 7 6 C7 5.01 7 4.02 7 3 C4.69 3 2.38 3 0 3 C0 2.01 0 1.02 0 0 Z " fill="#C4E328" transform="translate(60,87)"/>
<path d="M0 0 C0 3.63 0 7.26 0 11 C-0.99 11 -1.98 11 -3 11 C-3 11.99 -3 12.98 -3 14 C-4.32 14 -5.64 14 -7 14 C-7.33 9.71 -7.66 5.42 -8 1 C-5.29120665 -0.35439668 -2.99066732 -0.06501451 0 0 Z " fill="#1E7219" transform="translate(92,139)"/>
<path d="M0 0 C2.33333333 0 4.66666667 0 7 0 C7 0.99 7 1.98 7 3 C8.32 3 9.64 3 11 3 C11 3.99 11 4.98 11 6 C10.01 6.33 9.02 6.66 8 7 C8.59393382 8.29640378 9.20057989 9.58698839 9.8125 10.875 C10.14894531 11.59429687 10.48539063 12.31359375 10.83203125 13.0546875 C11.99467097 15.30542806 11.99467097 15.30542806 15 17 C15 17.99 15 18.98 15 20 C12.625 19.75 12.625 19.75 10 19 C7.90137502 16.10189884 8 14.71621139 8 11 C6.68 11 5.36 11 4 11 C3.67 8.69 3.34 6.38 3 4 C2.01 3.67 1.02 3.34 0 3 C0 2.01 0 1.02 0 0 Z " fill="#E6F232" transform="translate(100,109)"/>
<path d="M0 0 C1.32 0 2.64 0 4 0 C4 7.26 4 14.52 4 22 C2.68 22 1.36 22 0 22 C0 14.74 0 7.48 0 0 Z " fill="#D8F853" transform="translate(116,129)"/>
<path d="M0 0 C4.95 0 9.9 0 15 0 C15 1.65 15 3.3 15 5 C13.68 5 12.36 5 11 5 C10.67 5.66 10.34 6.32 10 7 C7.4375 7.625 7.4375 7.625 5 8 C5 7.01 5 6.02 5 5 C3.35 5 1.7 5 0 5 C0 3.35 0 1.7 0 0 Z " fill="#E0F630" transform="translate(92,162)"/>
<path d="M0 0 C1.32 0 2.64 0 4 0 C4 0.66 4 1.32 4 2 C4.99 2 5.98 2 7 2 C7 2.99 7 3.98 7 5 C8.32 5 9.64 5 11 5 C11 5.99 11 6.98 11 8 C4.73 8 -1.54 8 -8 8 C-8 7.01 -8 6.02 -8 5 C-5.36 5 -2.72 5 0 5 C0 3.35 0 1.7 0 0 Z " fill="#507E01" transform="translate(56,93)"/>
<path d="M0 0 C2.97 0 5.94 0 9 0 C9 0.66 9 1.32 9 2 C7.68 2 6.36 2 5 2 C5 3.98 5 5.96 5 8 C3.35 8 1.7 8 0 8 C0 10.64 0 13.28 0 16 C-1.32 16 -2.64 16 -4 16 C-4 13.36 -4 10.72 -4 8 C-3.01 8 -2.02 8 -1 8 C-0.67 5.36 -0.34 2.72 0 0 Z " fill="#D0ED38" transform="translate(111,151)"/>
<path d="M0 0 C3.3 0 6.6 0 10 0 C10 2.31 10 4.62 10 7 C9.01 7 8.02 7 7 7 C7 6.01 7 5.02 7 4 C4.69 4 2.38 4 0 4 C0 4.99 0 5.98 0 7 C-1.32 7 -2.64 7 -4 7 C-4.33 6.34 -4.66 5.68 -5 5 C-7.35599235 4.53248212 -7.35599235 4.53248212 -10.0625 4.375 C-10.98160156 4.30023438 -11.90070313 4.22546875 -12.84765625 4.1484375 C-13.55792969 4.09945312 -14.26820312 4.05046875 -15 4 C-15 3.67 -15 3.34 -15 3 C-10.05 3 -5.1 3 0 3 C0 2.01 0 1.02 0 0 Z " fill="#367C0D" transform="translate(82,181)"/>
<path d="M0 0 C0.99 0 1.98 0 3 0 C2.67 2.64 2.34 5.28 2 8 C1.34 8 0.68 8 0 8 C0 12.62 0 17.24 0 22 C-1.32 22 -2.64 22 -4 22 C-4.19627391 20.41773035 -4.38165538 18.83410729 -4.5625 17.25 C-4.66691406 16.36828125 -4.77132813 15.4865625 -4.87890625 14.578125 C-4.99456676 12.11567549 -4.73638695 10.33461936 -4 8 C-3.01 8 -2.02 8 -1 8 C-0.67 5.36 -0.34 2.72 0 0 Z " fill="#EDF22D" transform="translate(29,126)"/>
<path d="M0 0 C1.62490954 -0.02698189 3.24994633 -0.04638757 4.875 -0.0625 C5.77992187 -0.07410156 6.68484375 -0.08570313 7.6171875 -0.09765625 C10 0 10 0 12 1 C12 3.31 12 5.62 12 8 C9.03 8 6.06 8 3 8 C3 5.69 3 3.38 3 1 C2.01 0.67 1.02 0.34 0 0 Z " fill="#407B04" transform="translate(104,50)"/>
<path d="M0 0 C2.64 0 5.28 0 8 0 C8 0.99 8 1.98 8 3 C9.32 3 10.64 3 12 3 C12 3.99 12 4.98 12 6 C12.99 6 13.98 6 15 6 C15 6.99 15 7.98 15 9 C12.03 9 9.06 9 6 9 C5.67 7.02 5.34 5.04 5 3 C3.35 2.67 1.7 2.34 0 2 C0 1.34 0 0.68 0 0 Z " fill="#397606" transform="translate(70,106)"/>
<path d="M0 0 C1.32 0 2.64 0 4 0 C4 1.32 4 2.64 4 4 C5.2065625 4.309375 5.2065625 4.309375 6.4375 4.625 C7.283125 5.07875 8.12875 5.5325 9 6 C9.8125 9.125 9.8125 9.125 10 12 C7.69 11.67 5.38 11.34 3 11 C3 10.01 3 9.02 3 8 C2.01 8 1.02 8 0 8 C0 5.36 0 2.72 0 0 Z " fill="#D5EE46" transform="translate(15,162)"/>
<path d="M0 0 C3.63 0 7.26 0 11 0 C11 0.99 11 1.98 11 3 C7.32612505 3.85298376 3.9552607 4.10789471 0.1875 4.0625 C-0.78832031 4.05347656 -1.76414062 4.04445313 -2.76953125 4.03515625 C-3.50558594 4.02355469 -4.24164063 4.01195312 -5 4 C-5 4.99 -5 5.98 -5 7 C-7.64 6.67 -10.28 6.34 -13 6 C-13 5.34 -13 4.68 -13 4 C-9.98509443 2.99503148 -7.95818308 2.89664697 -4.8125 2.9375 C-3.91144531 2.94652344 -3.01039062 2.95554688 -2.08203125 2.96484375 C-1.39496094 2.97644531 -0.70789062 2.98804688 0 3 C0 2.01 0 1.02 0 0 Z " fill="#BBF15D" transform="translate(42,47)"/>
<path d="M0 0 C1.65 0 3.3 0 5 0 C5 3.63 5 7.26 5 11 C6.65 11 8.3 11 10 11 C10 11.99 10 12.98 10 14 C6.6875 13.875 6.6875 13.875 3 13 C-0.12822582 8.76175856 -0.3096519 5.16086504 0 0 Z " fill="#BDEB3F" transform="translate(32,156)"/>
<path d="M0 0 C0.99 0 1.98 0 3 0 C3 0.99 3 1.98 3 3 C2.34 3 1.68 3 1 3 C1.99 4.485 1.99 4.485 3 6 C3.25760279 8.69452521 3.08900053 11.28548375 3 14 C2.01 14 1.02 14 0 14 C0 13.01 0 12.02 0 11 C-1.32 11 -2.64 11 -4 11 C-4 8.36 -4 5.72 -4 3 C-2.68 3 -1.36 3 0 3 C0 2.01 0 1.02 0 0 Z " fill="#D0EC3C" transform="translate(89,109)"/>
<path d="M0 0 C0.99 0 1.98 0 3 0 C3 0.99 3 1.98 3 3 C4.32 3 5.64 3 7 3 C7 3.66 7 4.32 7 5 C7.99 5 8.98 5 10 5 C10 5.99 10 6.98 10 8 C11.32 8 12.64 8 14 8 C14 8.99 14 9.98 14 11 C11.69 11 9.38 11 7 11 C7 10.01 7 9.02 7 8 C5.68 8 4.36 8 3 8 C3 7.01 3 6.02 3 5 C2.01 5 1.02 5 0 5 C0 3.35 0 1.7 0 0 Z " fill="#DFF53E" transform="translate(75,101)"/>
<path d="M0 0 C2.64 0 5.28 0 8 0 C8 2.64 8 5.28 8 8 C5.36 8 2.72 8 0 8 C0 5.36 0 2.72 0 0 Z " fill="#BBEF53" transform="translate(29,65)"/>
<path d="M0 0 C2.64 0 5.28 0 8 0 C8 0.66 8 1.32 8 2 C6.8553125 2.4021875 6.8553125 2.4021875 5.6875 2.8125 C3.09503074 3.95800967 1.91184456 4.99711522 0 7 C-0.66 7 -1.32 7 -2 7 C-2 7.66 -2 8.32 -2 9 C-2.66 9 -3.32 9 -4 9 C-4 9.66 -4 10.32 -4 11 C-4.99 11.33 -5.98 11.66 -7 12 C-7 10.02 -7 8.04 -7 6 C-6.01 6 -5.02 6 -4 6 C-4 5.01 -4 4.02 -4 3 C-2.68 3 -1.36 3 0 3 C0 2.01 0 1.02 0 0 Z " fill="#CEF250" transform="translate(29,109)"/>
<path d="M0 0 C1.98 0 3.96 0 6 0 C6 1.65 6 3.3 6 5 C6.99 5 7.98 5 9 5 C9 6.98 9 8.96 9 11 C8.01 11 7.02 11 6 11 C6 10.01 6 9.02 6 8 C4.35 8 2.7 8 1 8 C0.67 5.36 0.34 2.72 0 0 Z " fill="#D0F149" transform="translate(47,79)"/>
<path d="M0 0 C0.99 0 1.98 0 3 0 C3 1.98 3 3.96 3 6 C4.32 6 5.64 6 7 6 C7 6.99 7 7.98 7 9 C2.9472484 9.98248524 -0.83861737 10.08159574 -5 10 C-5 9.67 -5 9.34 -5 9 C-3.35 9 -1.7 9 0 9 C0 8.01 0 7.02 0 6 C-1.65 6 -3.3 6 -5 6 C-5 5.01 -5 4.02 -5 3 C-3.35 3 -1.7 3 0 3 C0 2.01 0 1.02 0 0 Z " fill="#287D0D" transform="translate(97,30)"/>
<path d="M0 0 C3.3 0 6.6 0 10 0 C10 0.99 10 1.98 10 3 C8.35 3 6.7 3 5 3 C5 4.98 5 6.96 5 9 C3.35 9 1.7 9 0 9 C0 6.03 0 3.06 0 0 Z " fill="#C7E438" transform="translate(32,120)"/>
<path d="M0 0 C0.99 0 1.98 0 3 0 C3.17015617 13.02640027 2.64291459 25.99123875 2 39 C1.67 39 1.34 39 1 39 C0.67 26.13 0.34 13.26 0 0 Z " fill="#D8F6D7" transform="translate(227,0)"/>
<path d="M0 0 C2.97 0 5.94 0 9 0 C9 0.99 9 1.98 9 3 C7.68 3 6.36 3 5 3 C5 3.99 5 4.98 5 6 C2.03 6.66 -0.94 7.32 -4 8 C-3.67 6.35 -3.34 4.7 -3 3 C-2.01 3 -1.02 3 0 3 C0 2.01 0 1.02 0 0 Z " fill="#1F7F11" transform="translate(111,98)"/>
<path d="M0 0 C0.99 0.309375 1.98 0.61875 3 0.9375 C6.97731122 2.08433207 10.88767379 2.56712356 15 3 C15 4.32 15 5.64 15 7 C11.37 7 7.74 7 4 7 C3.67 5.68 3.34 4.36 3 3 C2.01 3 1.02 3 0 3 C0 2.01 0 1.02 0 0 Z " fill="#1B6F01" transform="translate(60,51)"/>
<path d="M0 0 C3.37462715 0.54723683 5.08235 1.0549 8 3 C8.6875 5.625 8.6875 5.625 9 8 C6.03 8 3.06 8 0 8 C0 5.36 0 2.72 0 0 Z " fill="#3B7901" transform="translate(37,159)"/>
<path d="M0 0 C3.96 0 7.92 0 12 0 C12 0.99 12 1.98 12 3 C10.35 3 8.7 3 7 3 C7.33 4.32 7.66 5.64 8 7 C6.35 7.33 4.7 7.66 3 8 C3 6.35 3 4.7 3 3 C2.01 3 1.02 3 0 3 C0 2.01 0 1.02 0 0 Z " fill="#F0F42C" transform="translate(104,148)"/>
<path d="M0 0 C0.99 0 1.98 0 3 0 C3 1.32 3 2.64 3 4 C4.32 4 5.64 4 7 4 C7 4.99 7 5.98 7 7 C5.56496445 7.36402369 4.12683494 7.71586591 2.6875 8.0625 C1.88699219 8.25972656 1.08648437 8.45695312 0.26171875 8.66015625 C-2 9 -2 9 -5 8 C-5 6.68 -5 5.36 -5 4 C-3.35 4 -1.7 4 0 4 C0 2.68 0 1.36 0 0 Z " fill="#41860E" transform="translate(75,54)"/>
<path d="M0 0 C0.99 0 1.98 0 3 0 C3 0.99 3 1.98 3 3 C4.32 3 5.64 3 7 3 C7 3.66 7 4.32 7 5 C7.99 5 8.98 5 10 5 C10 5.99 10 6.98 10 8 C9.01 8 8.02 8 7 8 C6.67 8.66 6.34 9.32 6 10 C4.02 9.34 2.04 8.68 0 8 C0 5.36 0 2.72 0 0 Z " fill="#B5D939" transform="translate(97,101)"/>
<path d="M0 0 C0.99 0 1.98 0 3 0 C3 0.99 3 1.98 3 3 C-3.53686384 3.98831156 -9.89577115 4.11883529 -16.5 4.0625 C-17.51320313 4.05798828 -18.52640625 4.05347656 -19.5703125 4.04882812 C-22.04693827 4.03714593 -24.52343657 4.02076582 -27 4 C-23.60102327 1.73401552 -22.43680827 1.76257346 -18.45703125 1.8046875 C-16.84731445 1.81435547 -16.84731445 1.81435547 -15.20507812 1.82421875 C-13.52575195 1.84935547 -13.52575195 1.84935547 -11.8125 1.875 C-10.68134766 1.88402344 -9.55019531 1.89304688 -8.38476562 1.90234375 C-5.58963172 1.92593138 -2.79492155 1.958847 0 2 C0 1.34 0 0.68 0 0 Z " fill="#CFEC3C" transform="translate(72,181)"/>
<path d="M0 0 C1.98 0 3.96 0 6 0 C9.44419134 9.41002278 9.44419134 9.41002278 9 14 C9.99 14 10.98 14 12 14 C12 14.66 12 15.32 12 16 C11.01 16.33 10.02 16.66 9 17 C8 16 8 16 7.9375 13.4375 C7.958125 12.633125 7.97875 11.82875 8 11 C7.01 11 6.02 11 5 11 C5 8.36 5 5.72 5 3 C3.35 3 1.7 3 0 3 C0 2.01 0 1.02 0 0 Z " fill="#CCE83C" transform="translate(92,126)"/>
<path d="M0 0 C0.99 0.33 1.98 0.66 3 1 C3 2.65 3 4.3 3 6 C4.32 6 5.64 6 7 6 C7 7.65 7 9.3 7 11 C5.68 11 4.36 11 3 11 C3 10.01 3 9.02 3 8 C2.01 8 1.02 8 0 8 C0 7.34 0 6.68 0 6 C-1.32 6 -2.64 6 -4 6 C-4 5.01 -4 4.02 -4 3 C-2.68 3 -1.36 3 0 3 C0 2.01 0 1.02 0 0 Z " fill="#E2E117" transform="translate(82,98)"/>
<path d="M0 0 C1.65 0 3.3 0 5 0 C5 3.63 5 7.26 5 11 C3.35 11 1.7 11 0 11 C0 7.37 0 3.74 0 0 Z " fill="#3A8506" transform="translate(32,54)"/>
<path d="M0 0 C1.32 0 2.64 0 4 0 C4.0270043 1.45823212 4.04639787 2.91660675 4.0625 4.375 C4.07410156 5.18710938 4.08570312 5.99921875 4.09765625 6.8359375 C4 9 4 9 3 11 C0.36 10.34 -2.28 9.68 -5 9 C-5 8.01 -5 7.02 -5 6 C-3.35 6 -1.7 6 0 6 C0 4.02 0 2.04 0 0 Z " fill="#538602" transform="translate(116,153)"/>
<path d="M0 0 C0.99 0 1.98 0 3 0 C3 1.65 3 3.3 3 5 C3.99 5 4.98 5 6 5 C6 5.99 6 6.98 6 8 C5.01 8 4.02 8 3 8 C3 8.99 3 9.98 3 11 C0.69 11 -1.62 11 -4 11 C-4 10.01 -4 9.02 -4 8 C-2.68 8 -1.36 8 0 8 C0 5.36 0 2.72 0 0 Z " fill="#DAEC1E" transform="translate(104,151)"/>
<path d="M0 0 C2.64 0 5.28 0 8 0 C8 1.32 8 2.64 8 4 C9.32 4 10.64 4 12 4 C12 4.99 12 5.98 12 7 C9.69 7 7.38 7 5 7 C5 6.01 5 5.02 5 4 C3.35 4 1.7 4 0 4 C0 2.68 0 1.36 0 0 Z " fill="#238312" transform="translate(212,177)"/>
<path d="M0 0 C0 4.24645065 -1.81750806 6.38524772 -4 10 C-5.65 10 -7.3 10 -9 10 C-9 8.02 -9 6.04 -9 4 C-7.35 4 -5.7 4 -4 4 C-4 3.01 -4 2.02 -4 1 C-2.68 0.67 -1.36 0.34 0 0 Z " fill="#3E7501" transform="translate(46,119)"/>
<path d="M0 0 C1.65 0 3.3 0 5 0 C3.84826645 2.46800047 2.95216435 4.04783565 1 6 C0.3574765 8.06874034 0.3574765 8.06874034 0 10 C-2.31 10 -4.62 10 -7 10 C-7 9.01 -7 8.02 -7 7 C-6.01 7 -5.02 7 -4 7 C-4 6.01 -4 5.02 -4 4 C-2.68 4 -1.36 4 0 4 C0 2.68 0 1.36 0 0 Z " fill="#286B00" transform="translate(111,58)"/>
<path d="M0 0 C2.97 0.495 2.97 0.495 6 1 C6 2.32 6 3.64 6 5 C7.3303125 4.938125 7.3303125 4.938125 8.6875 4.875 C11.97277013 4.99897246 14.05449295 5.61387904 17 7 C17 7.99 17 8.98 17 10 C15.35 10 13.7 10 12 10 C12 9.01 12 8.02 12 7 C9.36 7 6.72 7 4 7 C4 5.68 4 4.36 4 3 C2.68 3 1.36 3 0 3 C0 2.01 0 1.02 0 0 Z " fill="#D4F449" transform="translate(25,174)"/>
<path d="M0 0 C0.33 0 0.66 0 1 0 C1.33 11.55 1.66 23.1 2 35 C1.01 35 0.02 35 -1 35 C-0.67 23.45 -0.34 11.9 0 0 Z " fill="#CEF2D0" transform="translate(228,200)"/>
<path d="M0 0 C2.875 -0.1875 2.875 -0.1875 6 0 C6.66 0.99 7.32 1.98 8 3 C8.99 3 9.98 3 11 3 C11 3.99 11 4.98 11 6 C11.99 6.33 12.98 6.66 14 7 C12.741875 7.020625 11.48375 7.04125 10.1875 7.0625 C9.47980469 7.07410156 8.77210937 7.08570313 8.04296875 7.09765625 C6 7 6 7 3 6 C3 5.01 3 4.02 3 3 C2.01 3 1.02 3 0 3 C0 2.01 0 1.02 0 0 Z " fill="#497401" transform="translate(42,167)"/>
<path d="M0 0 C1.32 0 2.64 0 4 0 C4.05399736 1.45792884 4.09279177 2.91642712 4.125 4.375 C4.14820312 5.18710938 4.17140625 5.99921875 4.1953125 6.8359375 C4 9 4 9 2 11 C-0.32275177 11.40047444 -2.65739357 11.7397104 -5 12 C-4.35546875 11.77570313 -3.7109375 11.55140625 -3.046875 11.3203125 C-0.75611148 10.17110544 -0.75611148 10.17110544 -0.390625 7.6171875 C-0.34421875 6.71226562 -0.2978125 5.80734375 -0.25 4.875 C-0.19328125 3.96492187 -0.1365625 3.05484375 -0.078125 2.1171875 C-0.05234375 1.41851562 -0.0265625 0.71984375 0 0 Z " fill="#2C7714" transform="translate(78,162)"/>
<path d="M0 0 C1.65 0 3.3 0 5 0 C5 2.64 5 5.28 5 8 C2.36 8 -0.28 8 -3 8 C-3 7.01 -3 6.02 -3 5 C-2.34 4.67 -1.68 4.34 -1 4 C-0.34786708 1.97536745 -0.34786708 1.97536745 0 0 Z " fill="#467C01" transform="translate(92,151)"/>
<path d="M0 0 C0 0.99 0 1.98 0 3 C-3.63 3 -7.26 3 -11 3 C-11 3.99 -11 4.98 -11 6 C-12.65 6 -14.3 6 -16 6 C-15.67 4.68 -15.34 3.36 -15 2 C-9.75614911 0.2520497 -5.52677733 -0.19392201 0 0 Z " fill="#5C930B" transform="translate(53,44)"/>
<path d="M0 0 C9.07448253 -0.11157151 17.96278689 0.05757182 27 1 C27 1.99 27 2.98 27 4 C19.73535354 4.25050505 19.73535354 4.25050505 16.15625 3.03125 C12.73427904 1.91318028 9.7117127 1.59459465 6.125 1.375 C4.97257812 1.30023438 3.82015625 1.22546875 2.6328125 1.1484375 C1.32957031 1.07496094 1.32957031 1.07496094 0 1 C0 0.67 0 0.34 0 0 Z " fill="#60980D" transform="translate(48,50)"/>
<path d="M0 0 C2.64 0 5.28 0 8 0 C8 1.98 8 3.96 8 6 C5.36 6 2.72 6 0 6 C0 4.02 0 2.04 0 0 Z " fill="#CBE93B" transform="translate(89,167)"/>
<path d="M0 0 C3.63 0 7.26 0 11 0 C11 0.99 11 1.98 11 3 C10.01 3 9.02 3 8 3 C8 4.65 8 6.3 8 8 C7.01 8 6.02 8 5 8 C5 6.35 5 4.7 5 3 C3.35 3 1.7 3 0 3 C0 2.01 0 1.02 0 0 Z " fill="#AECC23" transform="translate(37,112)"/>
<path d="M0 0 C3.96 0 7.92 0 12 0 C12 0.99 12 1.98 12 3 C8.04 3 4.08 3 0 3 C0 2.01 0 1.02 0 0 Z M-6 3 C-4.02 3 -2.04 3 0 3 C-0.33 3.66 -0.66 4.32 -1 5 C-2.65 5 -4.3 5 -6 5 C-6 4.34 -6 3.68 -6 3 Z " fill="#BFE84A" transform="translate(48,101)"/>
<path d="M0 0 C0.33 0 0.66 0 1 0 C1 9.24 1 18.48 1 28 C0.67 28 0.34 28 0 28 C-0.33 24.7 -0.66 21.4 -1 18 C-1.33 18 -1.66 18 -2 18 C-2.625 14.625 -2.625 14.625 -3 11 C-2.34 10.34 -1.68 9.68 -1 9 C-0.53993654 6.79749008 -0.53993654 6.79749008 -0.375 4.375 C-0.30023438 3.55773437 -0.22546875 2.74046875 -0.1484375 1.8984375 C-0.09945313 1.27195313 -0.05046875 0.64546875 0 0 Z " fill="#407601" transform="translate(9,131)"/>
<path d="M0 0 C0.66 0 1.32 0 2 0 C2.433125 1.134375 2.86625 2.26875 3.3125 3.4375 C4.1478125 5.2009375 4.1478125 5.2009375 5 7 C5.99 7.33 6.98 7.66 8 8 C8 8.99 8 9.98 8 11 C8.99 11.33 9.98 11.66 11 12 C4.375 12.125 4.375 12.125 1 11 C0.67 7.37 0.34 3.74 0 0 Z " fill="#D8F131" transform="translate(81,50)"/>
<path d="M0 0 C6.93 0.495 6.93 0.495 14 1 C14 1.99 14 2.98 14 4 C11.69 4 9.38 4 7 4 C7 3.34 7 2.68 7 2 C6.01 2 5.02 2 4 2 C4 2.66 4 3.32 4 4 C2.68 4 1.36 4 0 4 C0 2.68 0 1.36 0 0 Z " fill="#E4F548" transform="translate(56,177)"/>
<path d="M0 0 C2.31 0 4.62 0 7 0 C7.08082094 1.95766281 7.13910778 3.91626728 7.1875 5.875 C7.22230469 6.96554688 7.25710937 8.05609375 7.29296875 9.1796875 C7.19628906 10.11039063 7.09960938 11.04109375 7 12 C6.01 12.66 5.02 13.32 4 14 C4 9.71 4 5.42 4 1 C2.68 0.67 1.36 0.34 0 0 Z " fill="#85C578" transform="translate(220,50)"/>
<path d="M0 0 C0.99 0 1.98 0 3 0 C3 4.62 3 9.24 3 14 C2.01 14 1.02 14 0 14 C0 9.38 0 4.76 0 0 Z " fill="#6E9E62" transform="translate(224,131)"/>
<path d="M0 0 C3.63 0 7.26 0 11 0 C11 0.99 11 1.98 11 3 C9.35 3 7.7 3 6 3 C6 3.99 6 4.98 6 6 C5.01 6 4.02 6 3 6 C3 5.01 3 4.02 3 3 C2.01 3 1.02 3 0 3 C0 2.01 0 1.02 0 0 Z " fill="#D3FC58" transform="translate(42,106)"/>
<path d="M0 0 C2.64 0 5.28 0 8 0 C8 0.99 8 1.98 8 3 C10.31 3 12.62 3 15 3 C15 3.66 15 4.32 15 5 C9.5814234 5.22577402 5.22512279 4.46670113 0 3 C0 2.01 0 1.02 0 0 Z " fill="#D2ED3C" transform="translate(70,90)"/>
<path d="M0 0 C3.96 0 7.92 0 12 0 C12.33 1.32 12.66 2.64 13 4 C8.71 3.67 4.42 3.34 0 3 C0 2.01 0 1.02 0 0 Z " fill="#157502" transform="translate(212,36)"/>
<path d="M0 0 C0.99 0 1.98 0 3 0 C3.04254356 1.99954746 3.04080783 4.00041636 3 6 C2 7 2 7 -1.5625 7.0625 C-2.696875 7.041875 -3.83125 7.02125 -5 7 C-5 5.68 -5 4.36 -5 3 C-3.35 3 -1.7 3 0 3 C0 2.01 0 1.02 0 0 Z " fill="#4F7A04" transform="translate(97,174)"/>
<path d="M0 0 C1.65 0 3.3 0 5 0 C5 2.64 5 5.28 5 8 C3.35 8 1.7 8 0 8 C0 5.36 0 2.72 0 0 Z " fill="#5A8708" transform="translate(10,159)"/>
<path d="M0 0 C2.33333333 0 4.66666667 0 7 0 C7 0.99 7 1.98 7 3 C8.32 3 9.64 3 11 3 C11 3.99 11 4.98 11 6 C8.69 6 6.38 6 4 6 C3.67 5.34 3.34 4.68 3 4 C2.01 3.67 1.02 3.34 0 3 C0 2.01 0 1.02 0 0 Z " fill="#CFEF45" transform="translate(100,109)"/>
<path d="M0 0 C1.23556641 0.01740234 1.23556641 0.01740234 2.49609375 0.03515625 C3.32238281 0.04417969 4.14867187 0.05320312 5 0.0625 C5.63808594 0.07410156 6.27617188 0.08570312 6.93359375 0.09765625 C6.93359375 1.08765625 6.93359375 2.07765625 6.93359375 3.09765625 C4.95359375 3.09765625 2.97359375 3.09765625 0.93359375 3.09765625 C0.93359375 3.75765625 0.93359375 4.41765625 0.93359375 5.09765625 C-0.71640625 5.09765625 -2.36640625 5.09765625 -4.06640625 5.09765625 C-2.94676868 0.13926128 -2.94676868 0.13926128 0 0 Z " fill="#488302" transform="translate(41.06640625,100.90234375)"/>
<path d="M0 0 C2.64 0 5.28 0 8 0 C8 1.65 8 3.3 8 5 C5.36 5 2.72 5 0 5 C0 3.35 0 1.7 0 0 Z " fill="#2A820B" transform="translate(70,68)"/>
<path d="M0 0 C0.33 0 0.66 0 1 0 C1 1.98 1 3.96 1 6 C2.65 6 4.3 6 6 6 C6 7.98 6 9.96 6 12 C4.35 12 2.7 12 1 12 C0.03929566 9.11788698 -0.10581883 7.30149956 -0.0625 4.3125 C-0.05347656 3.50425781 -0.04445313 2.69601563 -0.03515625 1.86328125 C-0.02355469 1.24839844 -0.01195312 0.63351563 0 0 Z " fill="#2D6800" transform="translate(9,161)"/>
<path d="M0 0 C0.99 0 1.98 0 3 0 C3 4.29 3 8.58 3 13 C2.01 13 1.02 13 0 13 C0 8.71 0 4.42 0 0 Z " fill="#E8F43C" transform="translate(15,129)"/>
<path d="M0 0 C0.99 0 1.98 0 3 0 C3 0.99 3 1.98 3 3 C4.32 3 5.64 3 7 3 C7 3.99 7 4.98 7 6 C4.69 6 2.38 6 0 6 C0 6.66 0 7.32 0 8 C-1.32 8 -2.64 8 -4 8 C-4 7.34 -4 6.68 -4 6 C-3.01 5.67 -2.02 5.34 -1 5 C-0.67 3.35 -0.34 1.7 0 0 Z " fill="#137203" transform="translate(82,76)"/>
<path d="M0 0 C2.64 0 5.28 0 8 0 C8 1.98 8 3.96 8 6 C6.35 6 4.7 6 3 6 C3 5.01 3 4.02 3 3 C2.01 3 1.02 3 0 3 C0 2.01 0 1.02 0 0 Z " fill="#B9D834" transform="translate(29,73)"/>
<path d="M0 0 C1.32 0 2.64 0 4 0 C4 2.97 4 5.94 4 9 C1.69 9 -0.62 9 -3 9 C-2.01 8.67 -1.02 8.34 0 8 C0 5.36 0 2.72 0 0 Z " fill="#E2F435" transform="translate(100,53)"/>
<path d="M0 0 C0.99 0 1.98 0 3 0 C3 0.66 3 1.32 3 2 C5.97 2 8.94 2 12 2 C12 2.66 12 3.32 12 4 C6.72 4 1.44 4 -4 4 C-4 3.34 -4 2.68 -4 2 C-2.68 2 -1.36 2 0 2 C0 1.34 0 0.68 0 0 Z " fill="#DDE825" transform="translate(60,179)"/>
<path d="M0 0 C1.32 0.33 2.64 0.66 4 1 C4 4.93312158 3.44512404 7.3871899 2 11 C1.01 11.495 1.01 11.495 0 12 C0 8.04 0 4.08 0 0 Z " fill="#326F02" transform="translate(120,145)"/>
<path d="M0 0 C4.95 0 9.9 0 15 0 C10.7952889 3.15353333 10.14908143 3.36246719 5.25 3.1875 C4.26515625 3.16042969 3.2803125 3.13335937 2.265625 3.10546875 C1.51796875 3.07066406 0.7703125 3.03585938 0 3 C0 2.01 0 1.02 0 0 Z " fill="#C6EE44" transform="translate(89,62)"/>
<path d="M0 0 C1.32 0 2.64 0 4 0 C4 0.99 4 1.98 4 3 C4.66 3.66 5.32 4.32 6 5 C2.7 5.66 -0.6 6.32 -4 7 C-4 6.01 -4 5.02 -4 4 C-3.01 4 -2.02 4 -1 4 C-0.67 2.68 -0.34 1.36 0 0 Z " fill="#E1E90E" transform="translate(93,54)"/>
<path d="M0 0 C0.99 0 1.98 0 3 0 C3 0.99 3 1.98 3 3 C3.99 3 4.98 3 6 3 C6 5.64 6 8.28 6 11 C4.02 11 2.04 11 0 11 C0 10.34 0 9.68 0 9 C0.99 9 1.98 9 3 9 C2.65555119 6.52733235 2.65555119 6.52733235 2 4 C1.34 3.67 0.68 3.34 0 3 C0 2.01 0 1.02 0 0 Z " fill="#BDE441" transform="translate(42,73)"/>
<path d="M0 0 C7.26 0 14.52 0 22 0 C22 0.33 22 0.66 22 1 C17.05 1 12.1 1 7 1 C6.67 1.99 6.34 2.98 6 4 C3.03 3.505 3.03 3.505 0 3 C0 2.01 0 1.02 0 0 Z " fill="#CBF75E" transform="translate(56,44)"/>
<path d="M0 0 C3.96 0 7.92 0 12 0 C12 0.99 12 1.98 12 3 C8.04 3 4.08 3 0 3 C0 2.01 0 1.02 0 0 Z " fill="#5E900B" transform="translate(25,181)"/>
<path d="M0 0 C2.64 0 5.28 0 8 0 C8.33 2.64 8.66 5.28 9 8 C8.67 7.34 8.34 6.68 8 6 C7.01 6 6.02 6 5 6 C5 5.01 5 4.02 5 3 C3.35 3 1.7 3 0 3 C0 2.01 0 1.02 0 0 Z " fill="#177205" transform="translate(70,73)"/>
<path d="M0 0 C3.96 0 7.92 0 12 0 C12 0.99 12 1.98 12 3 C8.04 3 4.08 3 0 3 C0 2.01 0 1.02 0 0 Z " fill="#75A913" transform="translate(92,65)"/>
<path d="M0 0 C3.96 0 7.92 0 12 0 C12 0.99 12 1.98 12 3 C8.04 3 4.08 3 0 3 C0 2.01 0 1.02 0 0 Z " fill="#4E8202" transform="translate(85,44)"/>
<path d="M0 0 C2.31 0 4.62 0 7 0 C7 1.65 7 3.3 7 5 C4.69 5 2.38 5 0 5 C0 3.35 0 1.7 0 0 Z " fill="#1F6900" transform="translate(78,115)"/>
<path d="M0 0 C1.65 0 3.3 0 5 0 C5 2.31 5 4.62 5 7 C3.35 7 1.7 7 0 7 C0 4.69 0 2.38 0 0 Z " fill="#1C6F01" transform="translate(37,58)"/>
<path d="M0 0 C0.33 1.32 0.66 2.64 1 4 C1.99 4 2.98 4 4 4 C4.66 6.97 5.32 9.94 6 13 C3.5625 12.25 3.5625 12.25 1 11 C-0.62484302 7.62532604 -0.07068911 3.67583367 0 0 Z " fill="#E6EE33" transform="translate(18,155)"/>
<path d="M0 0 C1.32 0 2.64 0 4 0 C3.835 1.0725 3.67 2.145 3.5 3.25 C2.91189085 7.03028752 2.91189085 7.03028752 3 11 C2.01 11 1.02 11 0 11 C0 7.37 0 3.74 0 0 Z " fill="#3D7C02" transform="translate(116,112)"/>
<path d="M0 0 C0.99 0 1.98 0 3 0 C3 3.63 3 7.26 3 11 C2.01 11 1.02 11 0 11 C0 7.37 0 3.74 0 0 Z " fill="#75AC1C" transform="translate(97,137)"/>
<path d="M0 0 C0.99 0 1.98 0 3 0 C3 3.63 3 7.26 3 11 C2.01 11 1.02 11 0 11 C0 7.37 0 3.74 0 0 Z " fill="#5D980B" transform="translate(120,134)"/>
<path d="M0 0 C2.31 0 4.62 0 7 0 C7 0.99 7 1.98 7 3 C6.01 3 5.02 3 4 3 C4 3.99 4 4.98 4 6 C2.68 6 1.36 6 0 6 C0 4.02 0 2.04 0 0 Z " fill="#ECF633" transform="translate(78,95)"/>
<path d="M0 0 C0.99 0 1.98 0 3 0 C3 0.99 3 1.98 3 3 C4.65 3 6.3 3 8 3 C8 3.99 8 4.98 8 6 C5.36 6 2.72 6 0 6 C0 4.02 0 2.04 0 0 Z " fill="#608809" transform="translate(45,84)"/>
<path d="M0 0 C2.64 0 5.28 0 8 0 C8 1.32 8 2.64 8 4 C5.36 4 2.72 4 0 4 C0 2.68 0 1.36 0 0 Z " fill="#D7E72F" transform="translate(48,177)"/>
<path d="M0 0 C1.32 0 2.64 0 4 0 C4 2.64 4 5.28 4 8 C2.68 8 1.36 8 0 8 C0 5.36 0 2.72 0 0 Z " fill="#E3E50F" transform="translate(25,159)"/>
<path d="M0 0 C1.65 0 3.3 0 5 0 C5 1.65 5 3.3 5 5 C4.360625 5.103125 3.72125 5.20625 3.0625 5.3125 C2.381875 5.539375 1.70125 5.76625 1 6 C0.67 6.99 0.34 7.98 0 9 C0 6.03 0 3.06 0 0 Z " fill="#C9EA48" transform="translate(10,131)"/>
<path d="M0 0 C1.65 0 3.3 0 5 0 C5 0.99 5 1.98 5 3 C3.35 3 1.7 3 0 3 C-0.33 4.65 -0.66 6.3 -1 8 C-1.66 8 -2.32 8 -3 8 C-3 6.02 -3 4.04 -3 2 C-2.01 2 -1.02 2 0 2 C0 1.34 0 0.68 0 0 Z " fill="#256804" transform="translate(92,148)"/>
<path d="M0 0 C1.65 0 3.3 0 5 0 C5 1.98 5 3.96 5 6 C3.35 6 1.7 6 0 6 C0 4.02 0 2.04 0 0 Z " fill="#2E6800" transform="translate(10,120)"/>
<path d="M0 0 C1.65 0 3.3 0 5 0 C5 1.98 5 3.96 5 6 C3.35 6 1.7 6 0 6 C0 4.02 0 2.04 0 0 Z " fill="#ECF941" transform="translate(92,120)"/>
<path d="M0 0 C0 2.31 0 4.62 0 7 C-0.99 7 -1.98 7 -3 7 C-3 6.01 -3 5.02 -3 4 C-4.32 4 -5.64 4 -7 4 C-6.67 3.01 -6.34 2.02 -6 1 C-1.125 0 -1.125 0 0 0 Z " fill="#E2EE23" transform="translate(32,119)"/>
<path d="M0 0 C0.99 0 1.98 0 3 0 C3 1.98 3 3.96 3 6 C0.69 6 -1.62 6 -4 6 C-4 5.01 -4 4.02 -4 3 C-2.68 3 -1.36 3 0 3 C0 2.01 0 1.02 0 0 Z " fill="#1E7C0C" transform="translate(224,106)"/>
<path d="M0 0 C3.3 0 6.6 0 10 0 C10 0.99 10 1.98 10 3 C6.7 3 3.4 3 0 3 C0 2.01 0 1.02 0 0 Z " fill="#BBE038" transform="translate(32,106)"/>
<path d="M0 0 C0.99 0 1.98 0 3 0 C3 1.98 3 3.96 3 6 C0.69 6 -1.62 6 -4 6 C-4 5.01 -4 4.02 -4 3 C-2.68 3 -1.36 3 0 3 C0 2.01 0 1.02 0 0 Z " fill="#BAEEB0" transform="translate(224,98)"/>
<path d="M0 0 C2.31 0 4.62 0 7 0 C7 1.98 7 3.96 7 6 C6.01 6 5.02 6 4 6 C4 5.01 4 4.02 4 3 C2.68 3 1.36 3 0 3 C0 2.01 0 1.02 0 0 Z " fill="#CCDD27" transform="translate(63,95)"/>
<path d="M0 0 C1.65 0 3.3 0 5 0 C5 0.99 5 1.98 5 3 C4.360625 3.103125 3.72125 3.20625 3.0625 3.3125 C2.381875 3.539375 1.70125 3.76625 1 4 C0.67 4.99 0.34 5.98 0 7 C-0.99 7 -1.98 7 -3 7 C-2.67 5.35 -2.34 3.7 -2 2 C-1.34 2 -0.68 2 0 2 C0 1.34 0 0.68 0 0 Z " fill="#F9F720" transform="translate(92,51)"/>
<path d="M0 0 C0.99 0 1.98 0 3 0 C3 0.99 3 1.98 3 3 C4.32 3 5.64 3 7 3 C7 3.99 7 4.98 7 6 C4.69 6 2.38 6 0 6 C0 4.02 0 2.04 0 0 Z " fill="#C2E744" transform="translate(53,44)"/>
<path d="M0 0 C1.65 0 3.3 0 5 0 C5 1.65 5 3.3 5 5 C3.35 5.33 1.7 5.66 0 6 C0 4.02 0 2.04 0 0 Z " fill="#257D11" transform="translate(152,207)"/>
<path d="M0 0 C0 0.99 0 1.98 0 3 C-0.99 3 -1.98 3 -3 3 C-3 3.99 -3 4.98 -3 6 C-4.32 6 -5.64 6 -7 6 C-7 4.35 -7 2.7 -7 1 C-4 0 -4 0 0 0 Z " fill="#CEF142" transform="translate(107,167)"/>
<path d="M0 0 C1.98 0 3.96 0 6 0 C5.34 1.98 4.68 3.96 4 6 C2.68 6 1.36 6 0 6 C0 4.02 0 2.04 0 0 Z " fill="#C8E842" transform="translate(18,120)"/>
<path d="M0 0 C1.32 0 2.64 0 4 0 C4 2.31 4 4.62 4 7 C2.68 7 1.36 7 0 7 C0 4.69 0 2.38 0 0 Z " fill="#82CE72" transform="translate(167,195)"/>
<path d="M0 0 C5.28 0 10.56 0 16 0 C16 0.33 16 0.66 16 1 C13.36 1.66 10.72 2.32 8 3 C8 2.34 8 1.68 8 1 C6.35 1 4.7 1 3 1 C3 1.99 3 2.98 3 4 C2.01 4 1.02 4 0 4 C0 2.68 0 1.36 0 0 Z " fill="#397808" transform="translate(29,184)"/>
<path d="M0 0 C1.32 0 2.64 0 4 0 C4 2.31 4 4.62 4 7 C2.68 7 1.36 7 0 7 C0 4.69 0 2.38 0 0 Z " fill="#0E6A01" transform="translate(220,174)"/>
<path d="M0 0 C1.32 0.33 2.64 0.66 4 1 C4 3.64 4 6.28 4 9 C3.01 9 2.02 9 1 9 C0.67 6.03 0.34 3.06 0 0 Z " fill="#E4EF2E" transform="translate(100,131)"/>
<path d="M0 0 C1.65 0 3.3 0 5 0 C5 0.99 5 1.98 5 3 C4.360625 3.12375 3.72125 3.2475 3.0625 3.375 C2.381875 3.58125 1.70125 3.7875 1 4 C0.67 4.66 0.34 5.32 0 6 C-1.32 6 -2.64 6 -4 6 C-4 5.01 -4 4.02 -4 3 C-2.68 3 -1.36 3 0 3 C0 2.01 0 1.02 0 0 Z " fill="#428608" transform="translate(111,106)"/>
<path d="M0 0 C1.32 0 2.64 0 4 0 C4 2.31 4 4.62 4 7 C2.68 7 1.36 7 0 7 C0 4.69 0 2.38 0 0 Z " fill="#216E01" transform="translate(116,51)"/>
<path d="M0 0 C1.32 0 2.64 0 4 0 C4 2.31 4 4.62 4 7 C2.68 7 1.36 7 0 7 C0 4.69 0 2.38 0 0 Z " fill="#337D05" transform="translate(100,40)"/>
<path d="M0 0 C2.31 0 4.62 0 7 0 C7 1.32 7 2.64 7 4 C4.69 4 2.38 4 0 4 C0 2.68 0 1.36 0 0 Z " fill="#3A7803" transform="translate(63,40)"/>
<path d="M0 0 C2.97 0 5.94 0 9 0 C9 0.99 9 1.98 9 3 C6.03 3 3.06 3 0 3 C0 2.01 0 1.02 0 0 Z " fill="#266C01" transform="translate(107,170)"/>
<path d="M0 0 C2.97 0 5.94 0 9 0 C9 0.99 9 1.98 9 3 C6.03 3 3.06 3 0 3 C0 2.01 0 1.02 0 0 Z " fill="#3B7801" transform="translate(107,167)"/>
<path d="M0 0 C0.66 0 1.32 0 2 0 C2 3.63 2 7.26 2 11 C1.34 11 0.68 11 0 11 C-1.125 3.375 -1.125 3.375 0 0 Z " fill="#D5E632" transform="translate(29,134)"/>
<path d="M0 0 C2.64 0 5.28 0 8 0 C8 0.66 8 1.32 8 2 C6.824375 2.433125 6.824375 2.433125 5.625 2.875 C2.90328368 3.84912254 2.90328368 3.84912254 1 6 C0 5 0 5 -0.0625 2.4375 C-0.041875 1.633125 -0.02125 0.82875 0 0 Z " fill="#D2F145" transform="translate(29,109)"/>
<path d="M0 0 C1.65 0 3.3 0 5 0 C5 0.99 5 1.98 5 3 C6.65 3 8.3 3 10 3 C10 3.66 10 4.32 10 5 C6.7 4.67 3.4 4.34 0 4 C0 2.68 0 1.36 0 0 Z " fill="#406800" transform="translate(32,79)"/>
<path d="M0 0 C1.98 0 3.96 0 6 0 C6 1.32 6 2.64 6 4 C3.36 4 0.72 4 -2 4 C-1.34 2.68 -0.68 1.36 0 0 Z " fill="#1F741C" transform="translate(64,58)"/>
<path d="M0 0 C2.97 0.495 2.97 0.495 6 1 C6.33 2.98 6.66 4.96 7 7 C6.01 7 5.02 7 4 7 C4 5.68 4 4.36 4 3 C2.68 3 1.36 3 0 3 C0 2.01 0 1.02 0 0 Z " fill="#D4F658" transform="translate(25,174)"/>
<path d="M0 0 C0.66 0 1.32 0 2 0 C2 1.98 2 3.96 2 6 C3.65 6 5.3 6 7 6 C7 6.66 7 7.32 7 8 C5.02 8 3.04 8 1 8 C-0.42944945 5.64561267 -1.08661261 4.51967567 -0.625 1.75 C-0.41875 1.1725 -0.2125 0.595 0 0 Z " fill="#4E7A01" transform="translate(90,123)"/>
<path d="M0 0 C1.32 0 2.64 0 4 0 C4 0.99 4 1.98 4 3 C3.01 3.33 2.02 3.66 1 4 C0.67 4.99 0.34 5.98 0 7 C-0.99 7.33 -1.98 7.66 -3 8 C-3 6.35 -3 4.7 -3 3 C-2.01 3 -1.02 3 0 3 C0 2.01 0 1.02 0 0 Z " fill="#F3F72D" transform="translate(25,123)"/>
<path d="M0 0 C4.62 0 9.24 0 14 0 C14.33 1.32 14.66 2.64 15 4 C13.68 4 12.36 4 11 4 C10.67 3.34 10.34 2.68 10 2 C7.64400765 1.53248212 7.64400765 1.53248212 4.9375 1.375 C4.01839844 1.30023438 3.09929687 1.22546875 2.15234375 1.1484375 C1.08693359 1.07496094 1.08693359 1.07496094 0 1 C0 0.67 0 0.34 0 0 Z " fill="#4C8C07" transform="translate(67,184)"/>
<path d="M0 0 C3.63 0 7.26 0 11 0 C11 0.66 11 1.32 11 2 C7.37 2.33 3.74 2.66 0 3 C0 2.01 0 1.02 0 0 Z " fill="#E7F83D" transform="translate(45,181)"/>
<path d="M0 0 C1.65 0 3.3 0 5 0 C5 1.65 5 3.3 5 5 C3.35 5 1.7 5 0 5 C0 3.35 0 1.7 0 0 Z " fill="#E4FC41" transform="translate(92,162)"/>
<path d="M0 0 C1.65 0 3.3 0 5 0 C5 1.65 5 3.3 5 5 C3.35 5 1.7 5 0 5 C0 3.35 0 1.7 0 0 Z " fill="#80B210" transform="translate(37,162)"/>
<path d="M0 0 C1.65 0 3.3 0 5 0 C5 1.65 5 3.3 5 5 C3.35 5 1.7 5 0 5 C0 3.35 0 1.7 0 0 Z " fill="#297C1D" transform="translate(37,148)"/>
<path d="M0 0 C1.65 0 3.3 0 5 0 C5 1.65 5 3.3 5 5 C3.35 5 1.7 5 0 5 C0 3.35 0 1.7 0 0 Z " fill="#508906" transform="translate(32,129)"/>
<path d="M0 0 C1.65 0 3.3 0 5 0 C5 1.65 5 3.3 5 5 C3.35 5 1.7 5 0 5 C0 3.35 0 1.7 0 0 Z " fill="#5D8807" transform="translate(10,126)"/>
<path d="M0 0 C1.65 0 3.3 0 5 0 C5 1.65 5 3.3 5 5 C3.35 5 1.7 5 0 5 C0 3.35 0 1.7 0 0 Z " fill="#8FBD21" transform="translate(111,115)"/>
<path d="M0 0 C1.65 0 3.3 0 5 0 C5 1.65 5 3.3 5 5 C3.35 5 1.7 5 0 5 C0 3.35 0 1.7 0 0 Z " fill="#F1FE4C" transform="translate(37,115)"/>
<path d="M0 0 C1.65 0 3.3 0 5 0 C5 1.65 5 3.3 5 5 C3.35 5 1.7 5 0 5 C0 3.35 0 1.7 0 0 Z " fill="#D8DB1C" transform="translate(92,115)"/>
<path d="M0 0 C2.64 0 5.28 0 8 0 C8 0.66 8 1.32 8 2 C6.35 2 4.7 2 3 2 C3 2.99 3 3.98 3 5 C2.01 5 1.02 5 0 5 C0 3.35 0 1.7 0 0 Z " fill="#EFF730" transform="translate(89,104)"/>
<path d="M0 0 C2.66666667 0.66666667 5.33333333 1.33333333 8 2 C8 2.99 8 3.98 8 5 C6.35 5.33 4.7 5.66 3 6 C3 4.68 3 3.36 3 2 C2.01 2 1.02 2 0 2 C0 1.34 0 0.68 0 0 Z " fill="#F4F12B" transform="translate(67,93)"/>
<path d="M0 0 C2.64 0 5.28 0 8 0 C7.67 1.32 7.34 2.64 7 4 C4.69 3.67 2.38 3.34 0 3 C0 2.01 0 1.02 0 0 Z " fill="#3B7301" transform="translate(48,90)"/>
<path d="M0 0 C1.65 0 3.3 0 5 0 C5 1.65 5 3.3 5 5 C3.35 5 1.7 5 0 5 C0 3.35 0 1.7 0 0 Z " fill="#9DBF19" transform="translate(37,68)"/>
<path d="M0 0 C1.65 0 3.3 0 5 0 C5 1.65 5 3.3 5 5 C3.35 5 1.7 5 0 5 C0 3.35 0 1.7 0 0 Z " fill="#E1FE54" transform="translate(32,68)"/>
<path d="M0 0 C0.99 0 1.98 0 3 0 C3 2.64 3 5.28 3 8 C2.01 8 1.02 8 0 8 C0 5.36 0 2.72 0 0 Z " fill="#B0D441" transform="translate(15,162)"/>
<path d="M0 0 C0.99 0 1.98 0 3 0 C3 2.64 3 5.28 3 8 C2.01 8 1.02 8 0 8 C0 5.36 0 2.72 0 0 Z " fill="#B5DB3F" transform="translate(97,148)"/>
<path d="M0 0 C1.32 0 2.64 0 4 0 C4 1.98 4 3.96 4 6 C2.68 6 1.36 6 0 6 C0 4.02 0 2.04 0 0 Z " fill="#F6F625" transform="translate(25,153)"/>
<path d="M0 0 C1.32 0 2.64 0 4 0 C4 1.98 4 3.96 4 6 C2.68 6 1.36 6 0 6 C0 4.02 0 2.04 0 0 Z " fill="#528B46" transform="translate(220,131)"/>
<path d="M0 0 C1.32 0 2.64 0 4 0 C5.35439668 2.70879335 5.06501451 5.00933268 5 8 C4.67 7.01 4.34 6.02 4 5 C1.98491642 4.26676204 1.98491642 4.26676204 0 4 C0 2.68 0 1.36 0 0 Z " fill="#E4EC28" transform="translate(111,129)"/>
<path d="M0 0 C1.32 0 2.64 0 4 0 C4 1.98 4 3.96 4 6 C2.68 6 1.36 6 0 6 C0 4.02 0 2.04 0 0 Z " fill="#94C327" transform="translate(116,123)"/>
<path d="M0 0 C2.64 0 5.28 0 8 0 C8 0.99 8 1.98 8 3 C5.36 3 2.72 3 0 3 C0 2.01 0 1.02 0 0 Z " fill="#248111" transform="translate(212,112)"/>
<path d="M0 0 C2.64 0 5.28 0 8 0 C8 0.99 8 1.98 8 3 C5.36 3 2.72 3 0 3 C0 2.01 0 1.02 0 0 Z " fill="#D7E639" transform="translate(89,101)"/>
<path d="M0 0 C2.31 0.33 4.62 0.66 7 1 C7 1.99 7 2.98 7 4 C4.69 4 2.38 4 0 4 C0 2.68 0 1.36 0 0 Z " fill="#528C04" transform="translate(82,61)"/>
<path d="M0 0 C2.64 0 5.28 0 8 0 C8 0.99 8 1.98 8 3 C5.36 3 2.72 3 0 3 C0 2.01 0 1.02 0 0 Z " fill="#D5FB5D" transform="translate(45,47)"/>
<path d="M0 0 C2.31 0 4.62 0 7 0 C7 0.99 7 1.98 7 3 C4.36 3 1.72 3 -1 3 C-0.67 2.01 -0.34 1.02 0 0 Z " fill="#D1DE35" transform="translate(90,170)"/>
<path d="M0 0 C0.66 0.33 1.32 0.66 2 1 C2 1.99 2 2.98 2 4 C2.99 4.33 3.98 4.66 5 5 C2.36 5 -0.28 5 -3 5 C-2.625 3.0625 -2.625 3.0625 -2 1 C-1.34 0.67 -0.68 0.34 0 0 Z " fill="#336A01" transform="translate(51,169)"/>
<path d="M0 0 C0.33 0.66 0.66 1.32 1 2 C0.01 2 -0.98 2 -2 2 C-2 2.66 -2 3.32 -2 4 C-3.32 4 -4.64 4 -6 4 C-6 4.99 -6 5.98 -6 7 C-6.99 7 -7.98 7 -9 7 C-9 6.01 -9 5.02 -9 4 C-6.03 2.68 -3.06 1.36 0 0 Z " fill="#2A7719" transform="translate(226,127)"/>
<path d="M0 0 C0 2.64 0 5.28 0 8 C-0.99 8 -1.98 8 -3 8 C-3.33 5.69 -3.66 3.38 -4 1 C-1 0 -1 0 0 0 Z " fill="#588B0F" transform="translate(18,118)"/>
<path d="M0 0 C2.64 0 5.28 0 8 0 C8 0.99 8 1.98 8 3 C5.69 3 3.38 3 1 3 C0.67 2.01 0.34 1.02 0 0 Z " fill="#346701" transform="translate(70,106)"/>
<path d="M0 0 C0.99 0 1.98 0 3 0 C3 1.65 3 3.3 3 5 C0.69 5 -1.62 5 -4 5 C-4 4.34 -4 3.68 -4 3 C-2.68 3 -1.36 3 0 3 C0 2.01 0 1.02 0 0 Z " fill="#C8F75F" transform="translate(60,101)"/>
<path d="M0 0 C1.32 0 2.64 0 4 0 C4.33 1.98 4.66 3.96 5 6 C3.35 6.33 1.7 6.66 0 7 C0 4.69 0 2.38 0 0 Z " fill="#147F06" transform="translate(63,68)"/>
<path d="M0 0 C0.33 0 0.66 0 1 0 C1 3.3 1 6.6 1 10 C0.01 10 -0.98 10 -2 10 C-1.54177532 6.53058454 -1.10868317 3.32604951 0 0 Z " fill="#DCF2DC" transform="translate(229,225)"/>
<path d="M0 0 C3.3 0 6.6 0 10 0 C9.01 0.33 8.02 0.66 7 1 C7 1.99 7 2.98 7 4 C5.68 4 4.36 4 3 4 C3 3.01 3 2.02 3 1 C2.01 0.67 1.02 0.34 0 0 Z " fill="#449C30" transform="translate(217,184)"/>
<path d="M0 0 C0.99 0 1.98 0 3 0 C3 0.99 3 1.98 3 3 C4.32 3.33 5.64 3.66 7 4 C7 4.33 7 4.66 7 5 C4.69 5 2.38 5 0 5 C0 3.35 0 1.7 0 0 Z " fill="#429532" transform="translate(217,101)"/>
<path d="M0 0 C0 1.98 0 3.96 0 6 C-0.33 5.34 -0.66 4.68 -1 4 C-1.99 4 -2.98 4 -4 4 C-4 4.66 -4 5.32 -4 6 C-4.99 6 -5.98 6 -7 6 C-7 5.01 -7 4.02 -7 3 C-1.125 0 -1.125 0 0 0 Z " fill="#1D6B0A" transform="translate(67,76)"/>
<path d="M0 0 C0.99 0 1.98 0 3 0 C3 2.64 3 5.28 3 8 C2.01 7.67 1.02 7.34 0 7 C0 4.69 0 2.38 0 0 Z " fill="#156803" transform="translate(171,22)"/>
<path d="M0 0 C2.31 0 4.62 0 7 0 C7 0.99 7 1.98 7 3 C4.69 3 2.38 3 0 3 C0 2.01 0 1.02 0 0 Z " fill="#1C6C03" transform="translate(82,185)"/>
<path d="M0 0 C2.31 0 4.62 0 7 0 C7 0.99 7 1.98 7 3 C4.69 3 2.38 3 0 3 C0 2.01 0 1.02 0 0 Z " fill="#5B8D08" transform="translate(82,181)"/>
<path d="M0 0 C0.99 0 1.98 0 3 0 C3 2.31 3 4.62 3 7 C2.01 7 1.02 7 0 7 C0 4.69 0 2.38 0 0 Z " fill="#A5EA95" transform="translate(224,177)"/>
<path d="M0 0 C2.31 0 4.62 0 7 0 C7 0.99 7 1.98 7 3 C4.69 3 2.38 3 0 3 C0 2.01 0 1.02 0 0 Z " fill="#72960B" transform="translate(53,174)"/>
<path d="M0 0 C1.32 0 2.64 0 4 0 C3.67 1.65 3.34 3.3 3 5 C2.34 5 1.68 5 1 5 C0.67 5.99 0.34 6.98 0 8 C0 5.36 0 2.72 0 0 Z " fill="#D5EF40" transform="translate(116,137)"/>
<path d="M0 0 C2.31 0 4.62 0 7 0 C7 0.99 7 1.98 7 3 C4.69 3 2.38 3 0 3 C0 2.01 0 1.02 0 0 Z " fill="#2D7C1A" transform="translate(63,109)"/>
<path d="M0 0 C2.875 -0.1875 2.875 -0.1875 6 0 C6.66 0.99 7.32 1.98 8 3 C5.36 3 2.72 3 0 3 C0 2.01 0 1.02 0 0 Z " fill="#3F7900" transform="translate(67,84)"/>
<path d="M0 0 C2.31 0 4.62 0 7 0 C7 0.99 7 1.98 7 3 C4.69 3 2.38 3 0 3 C0 2.01 0 1.02 0 0 Z " fill="#397D03" transform="translate(85,65)"/>
<path d="M0 0 C0.99 0 1.98 0 3 0 C3 2.31 3 4.62 3 7 C2.01 7 1.02 7 0 7 C0 4.69 0 2.38 0 0 Z " fill="#2C8120" transform="translate(15,51)"/>
<path d="M0 0 C2.64 0 5.28 0 8 0 C7.67 0.99 7.34 1.98 7 3 C4.69 3 2.38 3 0 3 C0 2.01 0 1.02 0 0 Z " fill="#DAF546" transform="translate(60,47)"/>
<path d="M0 0 C2.31 0 4.62 0 7 0 C7 0.99 7 1.98 7 3 C4.69 3 2.38 3 0 3 C0 2.01 0 1.02 0 0 Z " fill="#B0D736" transform="translate(78,44)"/>
<path d="M0 0 C0.99 0 1.98 0 3 0 C3 1.32 3 2.64 3 4 C-0.96 4 -4.92 4 -9 4 C-9 3.67 -9 3.34 -9 3 C-6.03 3 -3.06 3 0 3 C0 2.01 0 1.02 0 0 Z " fill="#117109" transform="translate(42,36)"/>
<path d="M0 0 C2.31 0 4.62 0 7 0 C7 0.99 7 1.98 7 3 C4.69 3 2.38 3 0 3 C0 2.01 0 1.02 0 0 Z " fill="#287F17" transform="translate(164,11)"/>
<path d="M0 0 C0.99 0 1.98 0 3 0 C3 0.99 3 1.98 3 3 C3.66 3.33 4.32 3.66 5 4 C1.52176885 5.15941038 -0.45895578 4.70820884 -4 4 C-2.68 3.67 -1.36 3.34 0 3 C0 2.01 0 1.02 0 0 Z " fill="#558F08" transform="translate(104,170)"/>
<path d="M0 0 C2.475 0.99 2.475 0.99 5 2 C4.01 3.485 4.01 3.485 3 5 C-0.625 5.6875 -0.625 5.6875 -4 6 C-2.68 5.34 -1.36 4.68 0 4 C0 2.68 0 1.36 0 0 Z " fill="#2D6D09" transform="translate(77,168)"/>
<path d="M0 0 C1.32 0 2.64 0 4 0 C4 1.65 4 3.3 4 5 C2.68 5 1.36 5 0 5 C0 3.35 0 1.7 0 0 Z " fill="#B9EB44" transform="translate(107,162)"/>
<path d="M0 0 C1.32 0 2.64 0 4 0 C4 1.65 4 3.3 4 5 C2.68 5 1.36 5 0 5 C0 3.35 0 1.7 0 0 Z " fill="#2B7C22" transform="translate(85,148)"/>
<path d="M0 0 C1.32 0 2.64 0 4 0 C4 1.65 4 3.3 4 5 C2.68 5 1.36 5 0 5 C0 3.35 0 1.7 0 0 Z " fill="#D0E72F" transform="translate(11,148)"/>
<path d="M0 0 C1.32 0 2.64 0 4 0 C4 1.65 4 3.3 4 5 C2.68 5 1.36 5 0 5 C0 3.35 0 1.7 0 0 Z " fill="#83B219" transform="translate(85,115)"/>
<path d="M0 0 C1.32 0.33 2.64 0.66 4 1 C4.33 2.32 4.66 3.64 5 5 C3.35 5 1.7 5 0 5 C0 3.35 0 1.7 0 0 Z " fill="#EAFA3C" transform="translate(104,115)"/>
<path d="M0 0 C1.32 0 2.64 0 4 0 C4 1.65 4 3.3 4 5 C2.68 5 1.36 5 0 5 C0 3.35 0 1.7 0 0 Z " fill="#346500" transform="translate(18,115)"/>
<path d="M0 0 C1.32 0 2.64 0 4 0 C4 1.65 4 3.3 4 5 C2.68 5 1.36 5 0 5 C0 3.35 0 1.7 0 0 Z " fill="#2A8318" transform="translate(3,115)"/>
<path d="M0 0 C1.32 0 2.64 0 4 0 C3.67 1.32 3.34 2.64 3 4 C1.68 4.33 0.36 4.66 -1 5 C-0.67 3.35 -0.34 1.7 0 0 Z " fill="#2A7E07" transform="translate(108,101)"/>
<path d="M0 0 C1.32 0 2.64 0 4 0 C4 1.65 4 3.3 4 5 C2.68 5 1.36 5 0 5 C0 3.35 0 1.7 0 0 Z " fill="#3B891D" transform="translate(107,68)"/>
<path d="M0 0 C1.32 0 2.64 0 4 0 C4 1.65 4 3.3 4 5 C2.68 5 1.36 5 0 5 C0 3.35 0 1.7 0 0 Z " fill="#357F11" transform="translate(18,68)"/>
<path d="M0 0 C1.65 0 3.3 0 5 0 C5 1.32 5 2.64 5 4 C3.35 4 1.7 4 0 4 C0 2.68 0 1.36 0 0 Z " fill="#64A41E" transform="translate(32,54)"/>
<path d="M0 0 C2.64 0 5.28 0 8 0 C8 0.99 8 1.98 8 3 C3.44615385 3.36923077 3.44615385 3.36923077 1.1875 1.5 C0.5996875 0.7575 0.5996875 0.7575 0 0 Z " fill="#387D01" transform="translate(45,185)"/>
<path d="M0 0 C1.32 0 2.64 0 4 0 C4 1.65 4 3.3 4 5 C2.68 4.67 1.36 4.34 0 4 C0 2.68 0 1.36 0 0 Z " fill="#2C6B1F" transform="translate(220,137)"/>
<path d="M0 0 C0.99 0 1.98 0 3 0 C3 1.65 3 3.3 3 5 C1.68 5 0.36 5 -1 5 C-0.67 3.35 -0.34 1.7 0 0 Z " fill="#E4E40D" transform="translate(26,126)"/>
<path d="M0 0 C3 0 3 0 4.6875 1.3125 C6 3 6 3 6 6 C5.01 6 4.02 6 3 6 C3 5.01 3 4.02 3 3 C2.01 3 1.02 3 0 3 C0 2.01 0 1.02 0 0 Z " fill="#CFF649" transform="translate(42,106)"/>
<path d="M0 0 C0.99 0 1.98 0 3 0 C3.33 0.99 3.66 1.98 4 3 C3 4 3 4 -0.0625 4.0625 C-1.5165625 4.0315625 -1.5165625 4.0315625 -3 4 C-3 3.34 -3 2.68 -3 2 C-2.01 2 -1.02 2 0 2 C0 1.34 0 0.68 0 0 Z " fill="#477F06" transform="translate(63,80)"/>
<path d="M0 0 C0.99 0 1.98 0 3 0 C3 3 3 3 1.6875 4.6875 C0 6 0 6 -3 6 C-3 5.01 -3 4.02 -3 3 C-2.01 3 -1.02 3 0 3 C0 2.01 0 1.02 0 0 Z " fill="#377502" transform="translate(107,62)"/>
<path d="M0 0 C1.32 0 2.64 0 4 0 C4 0.99 4 1.98 4 3 C4.99 3.33 5.98 3.66 7 4 C4.69 4 2.38 4 0 4 C0 2.68 0 1.36 0 0 Z " fill="#E0FB32" transform="translate(85,58)"/>
<path d="M0 0 C0 1.32 0 2.64 0 4 C-0.99 4 -1.98 4 -3 4 C-3 3.01 -3 2.02 -3 1 C-4.32 0.67 -5.64 0.34 -7 0 C-4.3333581 -1.33332095 -2.83319697 -0.67102033 0 0 Z " fill="#207F1B" transform="translate(25,184)"/>
<path d="M0 0 C0.99 0 1.98 0 3 0 C3.33 0.66 3.66 1.32 4 2 C6.02463255 2.65213292 6.02463255 2.65213292 8 3 C8 3.66 8 4.32 8 5 C6.02 5 4.04 5 2 5 C2 3.68 2 2.36 2 1 C1.34 0.67 0.68 0.34 0 0 Z " fill="#DCF32E" transform="translate(29,174)"/>
<path d="M0 0 C0.99 0.66 1.98 1.32 3 2 C3 2.99 3 3.98 3 5 C1.35 5 -0.3 5 -2 5 C-2 4.01 -2 3.02 -2 2 C-1.34 2 -0.68 2 0 2 C0 1.34 0 0.68 0 0 Z " fill="#236001" transform="translate(12,168)"/>
<path d="M0 0 C0.99 0 1.98 0 3 0 C3 1.98 3 3.96 3 6 C2.01 6 1.02 6 0 6 C0 4.02 0 2.04 0 0 Z " fill="#267E12" transform="translate(67,145)"/>
<path d="M0 0 C0.99 0 1.98 0 3 0 C3 1.98 3 3.96 3 6 C2.01 6 1.02 6 0 6 C0 4.02 0 2.04 0 0 Z " fill="#DFE519" transform="translate(15,142)"/>
<path d="M0 0 C0.99 0 1.98 0 3 0 C3 1.98 3 3.96 3 6 C2.01 6 1.02 6 0 6 C0 4.02 0 2.04 0 0 Z " fill="#B5DFA9" transform="translate(224,131)"/>
<path d="M0 0 C0.99 0 1.98 0 3 0 C3 1.98 3 3.96 3 6 C2.01 6 1.02 6 0 6 C0 4.02 0 2.04 0 0 Z " fill="#DEDF14" transform="translate(97,120)"/>
<path d="M0 0 C0.99 0 1.98 0 3 0 C3 1.98 3 3.96 3 6 C2.01 6 1.02 6 0 6 C0 4.02 0 2.04 0 0 Z " fill="#DEE726" transform="translate(97,109)"/>
<path d="M0 0 C1.98 0 3.96 0 6 0 C6 0.99 6 1.98 6 3 C4.02 3 2.04 3 0 3 C0 2.01 0 1.02 0 0 Z " fill="#1C6A03" transform="translate(42,90)"/>
<path d="M0 0 C0.99 0 1.98 0 3 0 C3 1.98 3 3.96 3 6 C2.01 6 1.02 6 0 6 C0 4.02 0 2.04 0 0 Z " fill="#E3F855" transform="translate(53,84)"/>
<path d="M0 0 C1.32 0 2.64 0 4 0 C4 1.65 4 3.3 4 5 C3.01 5.495 3.01 5.495 2 6 C1.34 5.34 0.68 4.68 0 4 C0 2.68 0 1.36 0 0 Z " fill="#437800" transform="translate(25,68)"/>
<path d="M0 0 C0 1.65 0 3.3 0 5 C-1.32 5 -2.64 5 -4 5 C-4 3.68 -4 2.36 -4 1 C-2 0 -2 0 0 0 Z " fill="#186801" transform="translate(82,68)"/>
<path d="M0 0 C1.65 0 3.3 0 5 0 C5 0.99 5 1.98 5 3 C2 4 2 4 -1 3 C-0.67 2.01 -0.34 1.02 0 0 Z " fill="#327004" transform="translate(20,65)"/>
<path d="M0 0 C1.32 0 2.64 0 4 0 C3.67 1.32 3.34 2.64 3 4 C1.68 4 0.36 4 -1 4 C-0.67 2.68 -0.34 1.36 0 0 Z " fill="#F3EC0A" transform="translate(93,54)"/>
<path d="M0 0 C1.98 0 3.96 0 6 0 C6 0.99 6 1.98 6 3 C4.02 3 2.04 3 0 3 C0 2.01 0 1.02 0 0 Z " fill="#217E19" transform="translate(42,33)"/>
<path d="M0 0 C0.66 0 1.32 0 2 0 C2.33 2.64 2.66 5.28 3 8 C2.01 7.67 1.02 7.34 0 7 C0 4.69 0 2.38 0 0 Z " fill="#EDF824" transform="translate(29,159)"/>
<path d="M0 0 C0.33 0 0.66 0 1 0 C1 1.65 1 3.3 1 5 C-0.65 5 -2.3 5 -4 5 C-4 4.01 -4 3.02 -4 2 C-2.68 2 -1.36 2 0 2 C0 1.34 0 0.68 0 0 Z " fill="#EAEB22" transform="translate(115,140)"/>
<path d="M0 0 C1.32 0 2.64 0 4 0 C4 1.32 4 2.64 4 4 C3.34 4 2.68 4 2 4 C1.67 4.66 1.34 5.32 1 6 C0.67 4.02 0.34 2.04 0 0 Z " fill="#DDFC53" transform="translate(25,112)"/>
<path d="M0 0 C1 3 1 3 0 6 C0 5.34 0 4.68 0 4 C-1.32 4 -2.64 4 -4 4 C-4 3.01 -4 2.02 -4 1 C-2.68 0.67 -1.36 0.34 0 0 Z " fill="#387000" transform="translate(104,100)"/>
<path d="M0 0 C1.32 0 2.64 0 4 0 C3.6875 1.9375 3.6875 1.9375 3 4 C2.01 4.33 1.02 4.66 0 5 C0 3.35 0 1.7 0 0 Z " fill="#3F7801" transform="translate(56,93)"/>
<path d="M0 0 C1.65 0 3.3 0 5 0 C4.67 1.32 4.34 2.64 4 4 C2.68 4 1.36 4 0 4 C0 2.68 0 1.36 0 0 Z " fill="#186F0F" transform="translate(70,79)"/>
<path d="M0 0 C0.99 0 1.98 0 3 0 C3 1.65 3 3.3 3 5 C2.01 5.33 1.02 5.66 0 6 C0 4.02 0 2.04 0 0 Z " fill="#187003" transform="translate(53,62)"/>
<path d="M0 0 C1.32 0 2.64 0 4 0 C4 1.32 4 2.64 4 4 C2.68 4.33 1.36 4.66 0 5 C0 3.35 0 1.7 0 0 Z " fill="#286602" transform="translate(18,54)"/>
</svg>
